<?xml version="1.0" encoding="utf-8"?>
<!-- Generator: Adobe Illustrator 19.1.0, SVG Export Plug-In . SVG Version: 6.00 Build 0)  -->
<svg version="1.1" id="Capa_1" xmlns="http://www.w3.org/2000/svg" xmlns:xlink="http://www.w3.org/1999/xlink" x="0px" y="0px"
	 viewBox="0 0 506 430" style="enable-background:new 0 0 506 430;" xml:space="preserve">
<style type="text/css">
	.st0{fill:#DD0516;}
	.st1{fill:#FF0000;}
	.st2{fill:#FFFFFF;}
	.st3{fill:#FBB03B;}
	.st4{fill:#FFC600;}
</style>
<g>
	<path class="st0" d="M336,80.3c-1.5,5.3-2.3,10.9-2.3,16.7c0,34.7,28.2,62.9,62.9,62.9c11.7,0,22.7-3.2,32.1-8.8
		C342.9,161.4,336.2,81.9,336,80.3z"/>
	<path class="st1" d="M459.6,97c0-34.7-28.2-62.9-62.9-62.9c-29,0-53.3,19.6-60.6,46.2c0.1,1.6,6.9,81.2,92.7,70.9
		C447.2,140.2,459.6,120.1,459.6,97z"/>
</g>
<g>
	<path class="st2" d="M406.4,129.2c0,2.7-1,5-2.9,6.9c-1.9,1.9-4.2,2.9-6.9,2.9c-2.6,0-4.9-1-6.8-2.9c-1.9-1.9-2.9-4.3-2.9-6.9
		c0-2.6,1-4.9,2.9-6.9c1.9-2,4.2-3,6.8-3c2.6,0,4.9,1,6.8,3C405.5,124.3,406.4,126.6,406.4,129.2z M405.5,104.6
		c0,2.8-0.8,5.1-2.3,7.1c-1.5,1.9-3.7,2.9-6.5,2.9c-2.7,0-4.8-1-6.4-2.9c-1.6-1.9-2.4-4.3-2.4-7.1V65c0-2.8,0.8-5.1,2.4-7.1
		c1.6-1.9,3.7-2.9,6.4-2.9c2.8,0,4.9,1,6.5,2.9c1.5,1.9,2.3,4.3,2.3,7.1V104.6z"/>
</g>
<g>
	<path class="st1" d="M187.2,304.3h213.3c0.4-2,0.7-4.1,0.7-6.3c0-16.9-13.7-30.5-30.5-30.5H215.8L156.7,97H59.8
		c-16.9,0-30.5,13.7-30.5,30.5c0,4.1,0.8,8,2.3,11.5h97.6L187.2,304.3z"/>
	<path class="st0" d="M187.2,304.3l-58.1-165.2H31.5c4.5,11.1,15.5,19,28.3,19h53.5l59.1,170.4h198.3c14.7,0,27-10.4,29.9-24.2
		H187.2z"/>
</g>
<g>
	<polygon class="st3" points="207.1,131.8 187.2,131.8 229.5,252 369.4,252 374.6,233.8 241.3,233.8 	"/>
	<path class="st4" d="M384.4,176.9c-28.5,0-52.6-19-60.3-45.1h-117l34.2,102h133.3l16.6-57.3C389,176.7,386.7,176.9,384.4,176.9z"/>
</g>
<g>
	<path class="st4" d="M236,374.1c0-17.4-14.1-31.5-31.5-31.5c-14.3,0-26.4,9.6-30.2,22.6c3.3,11,14,35.6,45.1,36.6
		C229.3,396.5,236,386.1,236,374.1z"/>
	<path class="st3" d="M174.4,365.2c-0.8,2.8-1.3,5.8-1.3,8.8c0,17.4,14.1,31.5,31.5,31.5c5.4,0,10.4-1.4,14.9-3.7
		C188.4,400.9,177.7,376.3,174.4,365.2z"/>
</g>
<g>
	<path class="st4" d="M391.2,374.1c0-17.4-14.1-31.5-31.5-31.5c-14.3,0-26.4,9.6-30.2,22.6c3.3,11,14,35.6,45.1,36.6
		C384.5,396.5,391.2,386.1,391.2,374.1z"/>
	<path class="st3" d="M329.6,365.2c-0.8,2.8-1.3,5.8-1.3,8.8c0,17.4,14.1,31.5,31.5,31.5c5.4,0,10.4-1.4,14.9-3.7
		C343.6,400.9,332.8,376.3,329.6,365.2z"/>
</g>
</svg>
