<?xml version="1.0" encoding="utf-8"?>
<!-- Generator: Adobe Illustrator 19.1.0, SVG Export Plug-In . SVG Version: 6.00 Build 0)  -->
<svg version="1.1" id="Capa_1" xmlns="http://www.w3.org/2000/svg" xmlns:xlink="http://www.w3.org/1999/xlink" x="0px" y="0px"
	 viewBox="0 0 506 430" style="enable-background:new 0 0 506 430;" xml:space="preserve">
<style type="text/css">
	.st0{fill:none;stroke:#007AD0;stroke-width:8.352;stroke-miterlimit:10;}
	.st1{fill:#EAF6F8;}
	.st2{opacity:0.5;fill:url(#SVGID_1_);enable-background:new    ;}
	.st3{fill:url(#SVGID_2_);}
	.st4{fill:url(#SVGID_3_);}
	.st5{fill:url(#SVGID_4_);}
	.st6{fill:url(#SVGID_5_);}
	.st7{fill:url(#SVGID_6_);}
	.st8{fill:url(#SVGID_7_);}
	.st9{fill:url(#SVGID_8_);}
	.st10{opacity:0.5;fill:url(#SVGID_9_);enable-background:new    ;}
	.st11{fill:url(#SVGID_10_);}
	.st12{fill:url(#SVGID_11_);}
	.st13{fill:#FFFFFF;}
	.st14{opacity:0.5;fill:url(#SVGID_12_);enable-background:new    ;}
	.st15{opacity:0.5;fill:url(#SVGID_13_);enable-background:new    ;}
	.st16{opacity:0.5;fill:url(#SVGID_14_);enable-background:new    ;}
	.st17{fill:url(#SVGID_15_);}
	.st18{fill:url(#SVGID_16_);}
	.st19{opacity:0.4;fill:url(#SVGID_17_);enable-background:new    ;}
	.st20{opacity:0.5;fill:url(#SVGID_18_);enable-background:new    ;}
	.st21{opacity:0.5;fill:url(#SVGID_19_);enable-background:new    ;}
	.st22{fill:#007AD0;}
	.st23{opacity:0.5;fill:url(#SVGID_20_);enable-background:new    ;}
	.st24{opacity:0.5;fill:url(#SVGID_21_);enable-background:new    ;}
	.st25{opacity:0.5;fill:url(#SVGID_22_);enable-background:new    ;}
	.st26{fill:url(#SVGID_23_);}
	.st27{fill:url(#SVGID_24_);}
	.st28{fill:url(#SVGID_25_);}
	.st29{opacity:0.5;fill:url(#SVGID_26_);enable-background:new    ;}
	.st30{opacity:0.4;fill:url(#SVGID_27_);enable-background:new    ;}
	.st31{opacity:0.6;fill:#FFFFFF;enable-background:new    ;}
	.st32{opacity:0.5;fill:url(#SVGID_28_);enable-background:new    ;}
	.st33{opacity:0.4;}
	.st34{fill:url(#SVGID_29_);}
	.st35{fill:#74B7C9;}
	.st36{opacity:0.34;enable-background:new    ;}
	.st37{fill:url(#SVGID_30_);}
	.st38{enable-background:new    ;}
	.st39{fill:#333333;}
</style>
<path class="st0" d="M158,204.9c0,0,39.3,24.4,43,25.7c0,0-49.7,42.2-59.7,52.6c0,0-12.7,9.4-16.1,20.7s-5,27.5-3.7,28.8
	s16.1-14.7,25.1-16.1c0,0,9.7,6.7,11.4,7s7.7-15.1,8.4-16.1s18.1-16.6,24.5-20.9c0,0,6.3,29.8,6.7,43.5c0,0-7.8,35.5-8.5,39.5
	s-1.2,29-3.6,31.3c-2.3,2.3-4.3,3.8-4,5.1c1,3.6,16.9,12.6,34.7,9.6c16.8-2.9,16.5-12.2,16.5-12.2s0.2-5.9,0-6.5
	s19.7-42.8,20.4-43.1c0,0,1.6,0.1,5,0.1c3.4,0,7.2-0.6,7.2-0.6s15.9,23.4,20.6,29.3c0,0,7.9,25.4,13,28.5c2.8,1.7,15.1,6.2,26.3,4.8
	c9.2-1.2,17.9-7.9,18-9c0.2-1.8-4.7-4-5-5.7c-0.2-1.7-5.7-25.6-5.7-26.4s2.9-10-0.8-18.1c-1.6-3.5-12.1-27.8-12.1-27.8
	s-7.7-49.3-7.6-52.2c0,0,24.3,10.3,25.4,12.4c1.1,2,7.7,11.9,9.2,12.1c1.4,0.2,4.7-6,6.7-9c0,0,6.8,2.5,12.6,7
	c5.9,4.6,10.7,11.2,11.7,11.6c2,0.7,0.2-33.4-5.1-39.1c-5.2-5.7-59.8-40.9-59.8-40.9s20.9-13.6,34.6-24.6c0,0,19.7-15.1,20.7-29.7
	c0.2-2.2-3.3-2.2-6.6-2.7c-3.7-0.7-7.2-1.7-7.2-1.7s-1.9-42.7-5.5-77.3c0,0,9.1-35.1,9.7-40c0.7-4.9,1.5-18.1,0.6-19.4
	c-0.9-1.2-9.7,7.2-20.6,7.2c0,0-0.3-28.5-1.8-29.1s-17,12.7-17,12.7s-59.3-5.7-69.8-5.2c-10.5,0.6-65.6,9.4-88.6,17
	c0,0-2.8-0.4-5.8-0.8c-3-0.4-6.1-0.8-6.9-0.1c-0.7,0.6-0.2,8,0.8,14.6c1.3,8.8,3,15,3.3,17.2s5.6,13.6,5.6,13.6s-6.3,61.5-6.3,62.8
	s3.2,13.1,3.2,13.1s-14.9-3.7-15.9-3.7s9.6,20.4,9.6,20.4s-16.6-1.7-18.2,0C128.6,176.6,156.7,204.2,158,204.9"/>
<path class="st1" d="M158,204.9c0,0,39.3,24.4,43,25.7c0,0-49.7,42.2-59.7,52.6c0,0-12.7,9.4-16.1,20.7s-5,27.5-3.7,28.8
	s16.1-14.7,25.1-16.1c0,0,9.7,6.7,11.4,7s7.7-15.1,8.4-16.1s18.1-16.6,24.5-20.9c0,0,6.3,29.8,6.7,43.5c0,0-7.8,35.5-8.5,39.5
	s-1.2,29-3.6,31.3c-2.3,2.3-4.3,3.8-4,5.1c1,3.6,16.9,12.6,34.7,9.6c16.8-2.9,16.5-12.2,16.5-12.2s0.2-5.9,0-6.5
	s19.7-42.8,20.4-43.1c0,0,2.4,0.1,5.7,0.1c3.4,0,6.3-1,6.3-1s16,23.9,20.7,29.7c0,0,7.9,25.4,13,28.5c2.8,1.7,15.1,6.2,26.3,4.8
	c9.2-1.2,17.9-7.9,18-9c0.2-1.8-4.7-4-5-5.7c-0.2-1.7-5.7-25.6-5.7-26.4s2.9-10-0.8-18.1c-1.6-3.5-12.1-27.8-12.1-27.8
	s-7.7-49.3-7.6-52.2c0,0,24.3,10.3,25.4,12.4c1.1,2,7.7,11.9,9.2,12.1c1.4,0.2,4.7-6,6.7-9c0,0,6.8,2.5,12.6,7
	c5.9,4.6,10.7,11.2,11.7,11.6c2,0.7,0.2-33.4-5.1-39.1c-5.2-5.7-59.8-40.9-59.8-40.9s20.9-13.6,34.6-24.6c0,0,19.7-15.1,20.7-29.7
	c0.2-2.2-3.3-2.2-6.6-2.7c-3.7-0.7-7.2-1.7-7.2-1.7s-1.9-42.7-5.5-77.3c0,0,9.1-35.1,9.7-40c0.7-4.9,1.5-18.1,0.6-19.4
	c-0.9-1.2-9.7,7.2-20.6,7.2c0,0-0.3-28.5-1.8-29.1s-17,12.7-17,12.7s-59.3-5.7-69.8-5.2c-10.5,0.6-65.6,9.4-88.6,17
	c0,0-2.8-0.4-5.8-0.8c-3-0.4-6.1-0.8-6.9-0.1c-0.7,0.6-0.2,8,0.8,14.6c1.3,8.8,3,15,3.3,17.2s5.6,13.6,5.6,13.6s-6.3,61.5-6.3,62.8
	s3.2,13.1,3.2,13.1s-14.9-3.7-15.9-3.7s9.6,20.4,9.6,20.4s-16.6-1.7-18.2,0C128.6,176.6,156.7,204.2,158,204.9"/>
<linearGradient id="SVGID_1_" gradientUnits="userSpaceOnUse" x1="250.2" y1="-32.8622" x2="250.2" y2="560.4381">
	<stop  offset="0" style="stop-color:#56ABDD;stop-opacity:0"/>
	<stop  offset="1" style="stop-color:#00C7E6"/>
</linearGradient>
<path class="st2" d="M158,204.9c0,0,39.3,24.4,43,25.7c0,0-49.7,42.2-59.7,52.6c0,0-12.7,9.4-16.1,20.7s-5,27.5-3.7,28.8
	s16.1-14.7,25.1-16.1c0,0,9.7,6.7,11.4,7s7.7-15.1,8.4-16.1s18.1-16.6,24.5-20.9c0,0,6.3,29.8,6.7,43.5c0,0-7.8,35.5-8.5,39.5
	s-1.2,29-3.6,31.3c-2.3,2.3-4.3,3.8-4,5.1c1,3.6,16.9,12.6,34.7,9.6c16.8-2.9,16.5-12.2,16.5-12.2s0.2-5.9,0-6.5
	s19.7-42.8,20.4-43.1c0,0,1.6,0.1,5,0.1c3.4,0,7.2-0.7,7.2-0.7s15.8,23.5,20.6,29.4c0,0,7.9,25.4,13,28.5c2.8,1.7,15.1,6.2,26.3,4.8
	c9.2-1.2,17.9-7.9,18-9c0.2-1.8-4.7-4-5-5.7c-0.2-1.7-5.7-25.6-5.7-26.4s2.9-10-0.8-18.1c-1.6-3.5-12.1-27.8-12.1-27.8
	s-7.7-49.3-7.6-52.2c0,0,24.3,10.3,25.4,12.4c1.1,2,7.7,11.9,9.2,12.1c1.4,0.2,4.7-6,6.7-9c0,0,6.8,2.5,12.6,7
	c5.9,4.6,11.1,10.8,11.7,11.6c4.2,4.7,0.2-33.4-5.1-39.1s-59.8-40.9-59.8-40.9s20.9-13.6,34.6-24.6c0,0,19.7-15.1,20.7-29.7
	c0.2-2.2-3.3-2.2-6.6-2.7c-3.7-0.7-7.2-1.7-7.2-1.7s-1.9-42.7-5.5-77.3c0,0,9.1-35.1,9.7-40c0.7-4.9,1.5-18.1,0.6-19.4
	c-0.9-1.2-9.7,7.2-20.6,7.2c0,0-0.3-28.5-1.8-29.1s-17,12.7-17,12.7s-59.3-5.7-69.8-5.2c-10.5,0.6-65.6,9.4-88.6,17
	c0,0-2.8-0.4-5.8-0.8c-3-0.4-6.1-0.8-6.9-0.1c-0.7,0.6-0.2,8,0.8,14.6c1.3,8.8,3,15,3.3,17.2c0.3,2.2,5.6,13.6,5.6,13.6
	s-6.3,61.5-6.3,62.8s3.2,13.1,3.2,13.1s-14.9-3.7-15.9-3.7s9.6,20.4,9.6,20.4s-16.6-1.7-18.2,0C128.7,176.6,156.7,204.2,158,204.9"
	/>
<g>
	<linearGradient id="SVGID_2_" gradientUnits="userSpaceOnUse" x1="205.1984" y1="193.4798" x2="205.1984" y2="132.9229">
		<stop  offset="0" style="stop-color:#2D5F7C;stop-opacity:0"/>
		<stop  offset="1" style="stop-color:#002851"/>
	</linearGradient>
	<path class="st3" d="M205.1,140.3c-8.1,0-14.6,6.6-14.6,14.6c0,0.7,0.1,1.2,0.2,1.9c0.9-7.2,7.1-12.7,14.5-12.7s13.6,5.6,14.5,12.7
		c0.1-0.7,0.2-1.2,0.2-1.9C219.7,146.8,213.2,140.3,205.1,140.3z"/>
	<linearGradient id="SVGID_3_" gradientUnits="userSpaceOnUse" x1="299.1984" y1="193.4798" x2="299.1984" y2="132.9229">
		<stop  offset="0" style="stop-color:#2D5F7C;stop-opacity:0"/>
		<stop  offset="1" style="stop-color:#002851"/>
	</linearGradient>
	<path class="st4" d="M299.1,144.1c7.4,0,13.6,5.6,14.5,12.7c0.1-0.7,0.2-1.2,0.2-1.9c0-8.1-6.6-14.6-14.6-14.6s-14.6,6.6-14.6,14.6
		c0,0.7,0.1,1.2,0.2,1.9C285.5,149.7,291.7,144.1,299.1,144.1z"/>
	<linearGradient id="SVGID_4_" gradientUnits="userSpaceOnUse" x1="205.0984" y1="193.4798" x2="205.0984" y2="132.9229">
		<stop  offset="0" style="stop-color:#56ABDD;stop-opacity:0"/>
		<stop  offset="1" style="stop-color:#0073B5"/>
	</linearGradient>
	<path class="st5" d="M205.1,144.1c-7.4,0-13.6,5.6-14.5,12.7c0.9,7.2,7.1,12.7,14.5,12.7s13.6-5.6,14.5-12.7
		C218.6,149.7,212.6,144.1,205.1,144.1z"/>
	<linearGradient id="SVGID_5_" gradientUnits="userSpaceOnUse" x1="205.0984" y1="197.2917" x2="205.0984" y2="136.7348">
		<stop  offset="0" style="stop-color:#56ABDD;stop-opacity:0"/>
		<stop  offset="1" style="stop-color:#0073B5"/>
	</linearGradient>
	<path class="st6" d="M205.1,144.1c-7.4,0-13.6,5.6-14.5,12.7c0.9,7.2,7.1,12.7,14.5,12.7s13.6-5.6,14.5-12.7
		C218.6,149.7,212.6,144.1,205.1,144.1z"/>
	<linearGradient id="SVGID_6_" gradientUnits="userSpaceOnUse" x1="299.0984" y1="193.4798" x2="299.0984" y2="132.9229">
		<stop  offset="0" style="stop-color:#56ABDD;stop-opacity:0"/>
		<stop  offset="1" style="stop-color:#0073B5"/>
	</linearGradient>
	<path class="st7" d="M299.1,169.5c7.4,0,13.6-5.6,14.5-12.7c-0.9-7.2-7.1-12.7-14.5-12.7s-13.6,5.6-14.5,12.7
		C285.5,164,291.7,169.5,299.1,169.5z"/>
	<linearGradient id="SVGID_7_" gradientUnits="userSpaceOnUse" x1="299.0984" y1="197.2917" x2="299.0984" y2="136.7348">
		<stop  offset="0" style="stop-color:#56ABDD;stop-opacity:0"/>
		<stop  offset="1" style="stop-color:#0073B5"/>
	</linearGradient>
	<path class="st8" d="M299.1,169.5c7.4,0,13.6-5.6,14.5-12.7c-0.9-7.2-7.1-12.7-14.5-12.7s-13.6,5.6-14.5,12.7
		C285.5,164,291.7,169.5,299.1,169.5z"/>
</g>
<linearGradient id="SVGID_8_" gradientUnits="userSpaceOnUse" x1="326.2469" y1="277.1696" x2="326.2469" y2="248.6187" gradientTransform="matrix(0.6138 7.489975e-002 0.1211 -0.9926 15.2712 429.4965)">
	<stop  offset="0" style="stop-color:#56ABDD;stop-opacity:0"/>
	<stop  offset="1" style="stop-color:#0073B5"/>
</linearGradient>
<path class="st9" d="M229.7,208.4c0,0,0.1-0.2,0.3-0.4s0.5-0.7,0.9-1.2s0.9-1.1,1.6-1.7c0.7-0.6,1.3-1.3,2.2-2
	c0.8-0.7,1.7-1.4,2.7-2.1s2-1.2,3.1-1.8c1.1-0.5,2.2-1.1,3.4-1.3c0.6-0.2,1.2-0.3,1.7-0.5l1.7-0.2c1.2-0.2,2.3-0.1,3.6-0.1
	c1.2,0,2.2,0.3,3.4,0.5c1.1,0.2,2.1,0.7,3.1,1.1c1,0.3,1.8,1,2.7,1.4c0.8,0.5,1.6,0.8,2.2,1.4c0.6,0.5,1.2,1,1.6,1.3
	c0.9,0.7,1.4,1.2,1.4,1.2s-0.5-0.4-1.3-1.2c-0.4-0.4-1-0.9-1.6-1.4c-0.6-0.6-1.3-1-2.2-1.6c-0.8-0.5-1.7-1.2-2.6-1.7
	c-1-0.4-2-1.1-3.1-1.4s-2.2-0.8-3.4-1s-2.4-0.5-3.6-0.3h-1.8c-0.6,0-1.2,0.2-1.8,0.2c-1.2,0.1-2.4,0.5-3.6,0.7
	c-1.2,0.3-2.3,0.7-3.4,1.2c-1.1,0.5-2.1,0.9-3,1.4c-1.8,1-3.4,2-4.5,2.8c-0.5,0.4-1,0.7-1.3,1c-0.2,0.2-0.4,0.3-0.4,0.3
	s-2,2.1-0.8,4.7C228,210.5,229.7,208.4,229.7,208.4z"/>
<linearGradient id="SVGID_9_" gradientUnits="userSpaceOnUse" x1="187.8492" y1="263.737" x2="109.262" y2="344.8503">
	<stop  offset="0" style="stop-color:#56ABDD;stop-opacity:0"/>
	<stop  offset="1" style="stop-color:#00C7E6"/>
</linearGradient>
<path class="st10" d="M200.3,231.1c0,0-38.1,31.4-59.3,52.4c-6.8,5.3-10.5,10.2-12.6,13.6c-6.7,11.8-8.2,35.1-6.9,35.8
	c1.1,0.6,7.3-5.4,13.6-10.1c4.5-3.3,9.2-5.7,11.5-6c0,0,10.4,7.1,11.4,7s2.8-3.7,8.4-16.1c0,0,18.1-16.6,24.5-20.9"/>
<linearGradient id="SVGID_10_" gradientUnits="userSpaceOnUse" x1="123.9468" y1="334.0887" x2="146.6302" y2="312.017">
	<stop  offset="0" style="stop-color:#56ABDD;stop-opacity:0"/>
	<stop  offset="1" style="stop-color:#0073B5"/>
</linearGradient>
<path class="st11" d="M121.6,332.8c0,0,15.7-19,21.5-18.2c2.7,0.3,3.8,1.8,3.8,1.8s-3.9,0.8-9.7,4.7
	C131.2,325.3,122.7,333.3,121.6,332.8z"/>
<linearGradient id="SVGID_11_" gradientUnits="userSpaceOnUse" x1="142.2527" y1="302.657" x2="118.1712" y2="304.8532">
	<stop  offset="0" style="stop-color:#56ABDD;stop-opacity:0"/>
	<stop  offset="1" style="stop-color:#FFFFFF"/>
</linearGradient>
<path class="st12" d="M146.6,316.6c-3.2-3.4-6.7-1.2-6.7-1.2s-3.3,1.6-8.5,6.7s-9.7,10.3-9.9,10.3c-0.2,0-1-2.5,0.5-13.4
	s3.7-21.5,13.1-30.2c0,0,5.2-5,6.3-5.6l9.7-9.2"/>
<g>
	<path class="st13" d="M139,316c1-1.1,2.5-1.8,4-1.8c0.7,0,1.5,0.1,2.2,0.4s1.3,0.7,1.9,1.2l0,0c1.8,1.2,3.6,2.5,5.4,3.7
		c0.9,0.6,1.8,1.2,2.7,1.8c0.5,0.3,0.9,0.6,1.4,0.9c0.5,0.2,0.9,0.6,1.5,0.7c-0.5-0.2-1-0.4-1.5-0.7c-0.5-0.2-1-0.5-1.5-0.8
		c-0.9-0.6-1.9-1.2-2.8-1.7c-1.8-1.2-3.7-2.4-5.5-3.7l0,0l0,0c-1.1-1-2.4-1.7-3.9-1.7C141.6,314.5,140.1,315,139,316z"/>
</g>
<linearGradient id="SVGID_12_" gradientUnits="userSpaceOnUse" x1="182.146" y1="317.6487" x2="206.1029" y2="294.5959">
	<stop  offset="0" style="stop-color:#56ABDD;stop-opacity:0"/>
	<stop  offset="1" style="stop-color:#0073B5"/>
</linearGradient>
<path class="st14" d="M191.8,281.9c0,0-16.3,13-25,25c-0.5,0.7,20.1-17.9,24-20.1c0.4,1.1,2.6,12.3,4.4,23.3c1.7,10.1,2.5,20,2.5,20
	S195.3,287.6,191.8,281.9z"/>
<linearGradient id="SVGID_13_" gradientUnits="userSpaceOnUse" x1="318.4864" y1="263.5566" x2="398.6425" y2="285.5692">
	<stop  offset="0" style="stop-color:#56ABDD;stop-opacity:0"/>
	<stop  offset="1" style="stop-color:#00C7E6"/>
</linearGradient>
<path class="st15" d="M312.6,230.7c0,0,58.1,37.9,59.9,41.3c4.5,6.2,6.7,38.3,4.7,38.9c-0.7,0.2-5.7-6.7-11.7-11.6
	c-5.7-4.5-12.6-7-12.6-7s-5.2,8.8-6.6,9s-9.2-11.7-9.2-12.1c-2.7-2.7-25.4-12.4-25.4-12.4"/>
<linearGradient id="SVGID_14_" gradientUnits="userSpaceOnUse" x1="328.2014" y1="307.033" x2="317.7708" y2="271.3163">
	<stop  offset="0" style="stop-color:#56ABDD;stop-opacity:0"/>
	<stop  offset="1" style="stop-color:#0073B5"/>
</linearGradient>
<path class="st16" d="M337.3,288.8c1.5-1.2-23-16.1-29.4-16.9c0,0-0.3,13.1,10.6,51.7c0,0-5.9-40.3-6.7-47.2
	C311.7,276.4,334.5,286.3,337.3,288.8z"/>
<linearGradient id="SVGID_15_" gradientUnits="userSpaceOnUse" x1="153.7513" y1="279.3234" x2="124.3998" y2="282" gradientTransform="matrix(-1 0 0 1 505.6284 0)">
	<stop  offset="0" style="stop-color:#56ABDD;stop-opacity:0"/>
	<stop  offset="1" style="stop-color:#FFFFFF"/>
</linearGradient>
<path class="st17" d="M353.1,292c0,0,3-2.7,8.1,0.1c8.4,5.5,16,18.4,16.1,18.4c0.2,0,1.8-4.2,0.2-15.1c-1.6-10.9-2.1-18.6-5.1-23.1
	c0,0-13.6-10.6-14.7-11.2l-17.5-11.7"/>
<linearGradient id="SVGID_16_" gradientUnits="userSpaceOnUse" x1="368.9204" y1="300.3737" x2="353.3552" y2="301.7932">
	<stop  offset="0" style="stop-color:#56ABDD;stop-opacity:0"/>
	<stop  offset="1" style="stop-color:#0073B5"/>
</linearGradient>
<path class="st18" d="M377.4,310.5c0,0-15.6-26-24.5-18.8c0,0,8.1,3.7,12.9,7.6c5.7,4.7,11.1,11.4,11.6,11.4
	C377.5,310.7,377.4,310.5,377.4,310.5z"/>
<path class="st13" d="M347.4,299.2c0,0,0.2-0.2,0.6-0.8c0.3-0.5,0.8-1.3,1.4-2.2c0.6-0.9,1.2-2,1.9-3.2c0.4-0.6,0.7-1.2,1.2-1.7
	s1.2-0.9,1.9-1.2c1.4-0.5,3-0.2,4.3,0.2c0.7,0.2,1.2,0.5,1.8,0.8c0.6,0.3,1,0.7,1.5,0.9c0.8,0.7,1.6,1.2,2,1.7
	c0.4,0.4,0.7,0.7,0.7,0.7s-0.2-0.2-0.7-0.7s-1.2-0.9-2.1-1.6c-0.5-0.2-0.9-0.6-1.5-0.8c-0.6-0.2-1.2-0.5-1.7-0.7
	c-1.2-0.4-2.7-0.6-4-0.1c-0.7,0.2-1.2,0.6-1.7,1c-0.4,0.5-0.7,1.2-1.2,1.7c-0.7,1.2-1.4,2.2-2.1,3.1c-0.6,0.9-1.2,1.6-1.6,2.1
	C347.7,299,347.4,299.2,347.4,299.2z"/>
<linearGradient id="SVGID_17_" gradientUnits="userSpaceOnUse" x1="254.6984" y1="291.7103" x2="254.6984" y2="422.398">
	<stop  offset="0" style="stop-color:#FFFFFF;stop-opacity:0"/>
	<stop  offset="1" style="stop-color:#FFFFFF"/>
</linearGradient>
<path class="st19" d="M307,271.7c-1.1,7.2,8.5,52,8.5,52c-1.5,3.8-27,28.5-56.7,29.5c-29.8,1.1-59.7-24.9-59.7-24.9
	s-2.1-37.4-5.2-46.5"/>
<linearGradient id="SVGID_18_" gradientUnits="userSpaceOnUse" x1="224.3698" y1="416.0639" x2="250.297" y2="322.8496">
	<stop  offset="0" style="stop-color:#56ABDD;stop-opacity:0"/>
	<stop  offset="1" style="stop-color:#0073B5"/>
</linearGradient>
<path class="st20" d="M235.7,349.6L220.4,394c0,0,0.8,20-6.7,21.6c0,0,21.2-0.5,18.5-18.2l9.3-20.7l11.1-23.3
	C252.7,353.5,245.3,353.3,235.7,349.6z"/>
<linearGradient id="SVGID_19_" gradientUnits="userSpaceOnUse" x1="305.3538" y1="407.3578" x2="267.3015" y2="343.2516">
	<stop  offset="0" style="stop-color:#56ABDD;stop-opacity:0"/>
	<stop  offset="1" style="stop-color:#0073B5"/>
</linearGradient>
<path class="st21" d="M265.2,352.9c0,0,8.1-1.2,14.9-4l15.7,29.3l9,25.3c0,0,5.3,10.6,11.7,11.9c0,0-13.7-1.2-18.1-4.7
	s-12.5-28-12.5-28L265.2,352.9z"/>
<g>
	<path class="st22" d="M227,345.8c0,0,0.9,0.4,2.5,1c1.6,0.7,3.9,1.5,6.7,2.4c1.4,0.5,2.9,0.9,4.5,1.4c0.8,0.2,1.7,0.4,2.5,0.7
		c0.8,0.2,1.7,0.4,2.6,0.7c0.9,0.2,1.7,0.3,2.7,0.6c0.9,0.2,1.8,0.2,2.7,0.4c0.9,0.2,1.9,0.2,2.8,0.3c0.9,0.1,1.9,0.1,2.8,0.1
		c0.9,0,1.9-0.1,2.8-0.1c1-0.1,1.9-0.2,2.9-0.3c1.8-0.2,3.7-0.6,5.5-1c1.7-0.4,3.5-0.8,5.1-1.2c0.8-0.2,1.6-0.4,2.3-0.7
		c0.7-0.2,1.5-0.4,2.2-0.7c2.7-0.9,5.1-1.7,6.6-2.4c1.6-0.7,2.5-1.1,2.5-1.1s-0.8,0.5-2.3,1.3c-1.5,0.8-3.7,1.9-6.4,3.1
		c-1.3,0.6-2.8,1.2-4.4,1.7c-1.6,0.6-3.3,1.1-5.1,1.5c-1.8,0.4-3.7,0.8-5.6,1.2c-1,0.2-1.9,0.2-2.9,0.3s-2,0.1-3,0.2
		c-1-0.1-2-0.1-3-0.2s-2-0.2-2.9-0.3c-1-0.2-1.9-0.3-2.8-0.5c-0.9-0.2-1.8-0.4-2.7-0.7c-0.9-0.2-1.7-0.5-2.6-0.7
		c-0.8-0.2-1.7-0.5-2.5-0.8c-0.8-0.2-1.6-0.6-2.3-0.8c-0.7-0.3-1.4-0.6-2.2-0.8c-1.3-0.6-2.6-1.1-3.7-1.7c-1.1-0.5-2-1-2.7-1.3
		c-0.7-0.4-1.3-0.7-1.7-0.9C227.2,346,227,345.8,227,345.8z"/>
</g>
<linearGradient id="SVGID_20_" gradientUnits="userSpaceOnUse" x1="139.5693" y1="165.4" x2="150.0088" y2="165.4">
	<stop  offset="0" style="stop-color:#56ABDD;stop-opacity:0"/>
	<stop  offset="1" style="stop-color:#0073B5"/>
</linearGradient>
<polyline class="st23" points="149.5,175.4 150,169.6 139.6,155.4 "/>
<linearGradient id="SVGID_21_" gradientUnits="userSpaceOnUse" x1="191.5761" y1="225.0315" x2="126.375" y2="175.9612">
	<stop  offset="0" style="stop-color:#56ABDD;stop-opacity:0"/>
	<stop  offset="1" style="stop-color:#0073B5"/>
</linearGradient>
<path class="st24" d="M131.2,175.7l29.3,24.6l40,29.1l-42.7-25.9C157.8,203.6,134.2,181.4,131.2,175.7z"/>
<linearGradient id="SVGID_22_" gradientUnits="userSpaceOnUse" x1="314.7048" y1="227.076" x2="378.8214" y2="171.9059">
	<stop  offset="0" style="stop-color:#56ABDD;stop-opacity:0"/>
	<stop  offset="1" style="stop-color:#0073B5"/>
</linearGradient>
<path class="st25" d="M366.9,176.5c0,0,0.5,7.2-10.8,20.1c0,0-14.6,15.5-43.7,32.5c0,0,36.4-30.9,41.7-37.3"/>
<linearGradient id="SVGID_23_" gradientUnits="userSpaceOnUse" x1="162.1866" y1="80.9252" x2="144.5784" y2="36.2505">
	<stop  offset="0" style="stop-color:#56ABDD;stop-opacity:0"/>
	<stop  offset="1" style="stop-color:#0073B5"/>
</linearGradient>
<path class="st26" d="M148.8,37.8c0,0-0.9,11.5,4.3,31.1c0,0,5.2,12.6,5.6,13.4l2.9-13.9l-4.2-4.5C157.4,63.9,151.9,50.7,148.8,37.8
	z"/>
<linearGradient id="SVGID_24_" gradientUnits="userSpaceOnUse" x1="334.7769" y1="47.2329" x2="333.5652" y2="8.7631">
	<stop  offset="0" style="stop-color:#56ABDD;stop-opacity:0"/>
	<stop  offset="1" style="stop-color:#0073B5"/>
</linearGradient>
<path class="st27" d="M335.9,14.6l-4.3,21l5.8,7.5C337.4,43,336.9,16.5,335.9,14.6z"/>
<linearGradient id="SVGID_25_" gradientUnits="userSpaceOnUse" x1="344.0363" y1="88.2318" x2="360.1981" y2="22.0079">
	<stop  offset="0" style="stop-color:#56ABDD;stop-opacity:0"/>
	<stop  offset="1" style="stop-color:#0073B5"/>
</linearGradient>
<path class="st28" d="M357.9,36.3l-4.2,14.8l-10.1,18.1l3.7,24.5l10.1-39.4C357.5,54.2,358.3,38.8,357.9,36.3z"/>
<linearGradient id="SVGID_26_" gradientUnits="userSpaceOnUse" x1="254.5484" y1="273.993" x2="254.5484" y2="213.2111">
	<stop  offset="0" style="stop-color:#56ABDD;stop-opacity:0"/>
	<stop  offset="1" style="stop-color:#0073B5"/>
</linearGradient>
<path class="st29" d="M367.5,268.9l-56.2-37.7c0,0-25.3,11.6-57.1,11.6s-51.5-11.6-51.5-11.6l-61.1,52"/>
<path class="st13" d="M131.6,175.3c0,0,6.7-0.9,17.6,0.6l-3.2,4.6C146,180.5,139.2,175.4,131.6,175.3z"/>
<path class="st13" d="M139.3,155l15.3,3.7c0,0-3.8,2.6-4.4,2.5C149.6,161.1,139.3,155,139.3,155z"/>
<g>
	<path class="st13" d="M142,283.3c0,0,0.9-0.8,2.5-2.3c1.6-1.5,3.8-3.6,6.6-6.1c2.7-2.5,5.9-5.3,9.4-8.4c1.7-1.5,3.5-3.1,5.3-4.7
		s3.7-3.2,5.6-4.8c1.9-1.6,3.7-3.2,5.6-4.7c1.8-1.6,3.7-3.1,5.4-4.6c3.6-3,6.9-5.7,9.7-8s5.3-4.2,7-5.6c1.7-1.3,2.7-2.1,2.7-2.1
		s-0.9,0.8-2.5,2.3s-3.8,3.6-6.6,6.1c-2.7,2.5-5.9,5.3-9.4,8.4c-1.7,1.5-3.5,3.1-5.3,4.7c-1.8,1.6-3.7,3.2-5.6,4.8
		c-1.9,1.6-3.7,3.2-5.6,4.7c-1.8,1.6-3.7,3.1-5.4,4.6c-3.6,3-6.9,5.7-9.7,8s-5.3,4.2-7,5.6C143,282.5,142,283.3,142,283.3z"/>
</g>
<path class="st22" d="M333.1,373.7c0,0-2.9,6.2-13.1,10.3c0,0,9.7-1.9,14.1-7.9L333.1,373.7z"/>
<linearGradient id="SVGID_27_" gradientUnits="userSpaceOnUse" x1="257.6984" y1="338.7906" x2="257.6984" y2="359.3486">
	<stop  offset="0" style="stop-color:#FFFFFF;stop-opacity:0"/>
	<stop  offset="1" style="stop-color:#FFFFFF"/>
</linearGradient>
<ellipse class="st30" cx="257.7" cy="344.7" rx="17.6" ry="8.1"/>
<g>
	<path class="st13" d="M319.1,330.8c0.9,1.7,1.7,3.5,2.5,5.2s1.6,3.5,2.4,5.2c0.7,1.7,1.6,3.5,2.3,5.2s1.5,3.5,2.2,5.3
		c0.7,1.7,1.5,3.6,2.2,5.3l0.5,1.3l0.2,0.7l0.2,0.4l0.1,0.4c0.2,1,0.4,1.9,0.6,2.9c0.1,1,0.2,2,0.2,2.9c0,1,0,2-0.1,2.9
		c-0.1,1-0.2,1.9-0.3,2.9c-0.2,1-0.3,1.9-0.6,2.8v0.2l-0.1,0.1c-1.1,1.1-2.2,2.1-3.3,3.1c-1.2,1-2.3,1.9-3.7,2.6
		c0.6-0.4,1.2-0.9,1.7-1.4c0.6-0.5,1.1-1,1.6-1.6c1-1.1,2-2.2,3-3.3l-0.1,0.2c0.2-0.9,0.2-1.9,0.4-2.8c0.1-0.9,0.2-1.9,0.2-2.8
		s0-1.9-0.1-2.8s-0.2-1.8-0.3-2.8c-0.2-0.9-0.3-1.8-0.6-2.7l-0.1-0.3l-0.1-0.2l-0.2-0.7l-0.6-1.3c-0.7-1.7-1.4-3.6-2.2-5.3
		c-0.7-1.7-1.4-3.6-2.1-5.3c-0.7-1.7-1.3-3.6-2.1-5.4c-0.7-1.8-1.3-3.6-2-5.4C320.4,334.5,319.7,332.8,319.1,330.8z"/>
</g>
<path class="st13" d="M332.6,378.3l4.8,23.9l-0.2-0.3c1.2,0.9,2.2,1.8,3.4,2.7c0.6,0.5,1.2,0.7,1.7,1.7c0.1,0.2,0.1,0.2,0.1,0.5
	c0,0,0,0.1-0.1,0.2c0,0.1-0.1,0.2-0.1,0.2c-0.1,0.2-0.2,0.3-0.4,0.5c-0.2,0.3-0.6,0.6-0.8,0.8c-2.4,1.9-5.1,3.2-7.8,4.3
	c-5.5,2.2-11.6,3-17.4,1.7c5.8,1.2,11.8,0.1,17.2-2.2c2.7-1.2,5.3-2.6,7.5-4.4c0.2-0.2,0.5-0.5,0.7-0.7c0.1-0.1,0.2-0.2,0.2-0.3
	v-0.1c0,0,0,0,0-0.1c0,0.1,0,0,0-0.1c-0.2-0.4-0.9-0.8-1.5-1.2c-1.2-0.8-2.4-1.7-3.6-2.7l-0.2-0.1l-0.1-0.2l-5.2-22.9L332.6,378.3z"
	/>
<g>
	<path class="st13" d="M199.1,330.8c-0.5,2.9-1.1,5.7-1.7,8.7c-0.6,2.9-1.2,5.7-1.7,8.7c-1.2,5.7-2.4,11.5-3.7,17.2l-0.9,4.3
		l-0.1,0.5c0,0.2,0,0.3-0.1,0.5l-0.1,1.1l-0.1,2.2c-0.2,2.9-0.2,5.9-0.5,8.8c-0.2,2.9-0.4,5.9-0.7,8.8c-0.2,1.5-0.3,2.9-0.6,4.4
		c-0.2,0.7-0.2,1.5-0.4,2.2s-0.3,1.5-0.7,2.2l0.1-0.3c0,0.3-0.1,0.5-0.2,0.7s-0.2,0.4-0.2,0.6c-0.2,0.4-0.4,0.7-0.7,1.1
		c-0.5,0.7-1.2,1.2-1.7,1.7c-0.6,0.5-1.1,1-1.6,1.5c-0.1,0.1-0.2,0.2-0.3,0.3l0,0c0,0,0,0,0-0.1s0-0.1,0-0.2l0,0v0.1c0,0,0,0,0,0.1
		c0.1,0.2,0.3,0.5,0.5,0.7c0.9,1.1,2.1,1.9,3.3,2.7c1.2,0.8,2.5,1.5,3.8,2.2c2.7,1.2,5.5,2.3,8.4,3.1c2.9,0.7,5.8,1.2,8.8,1.4
		c-3,0-6-0.3-9-0.9s-5.9-1.5-8.7-2.7c-1.4-0.6-2.7-1.3-4.1-2.1c-1.3-0.8-2.6-1.7-3.7-2.9c-0.2-0.3-0.5-0.6-0.7-1.1
		c-0.1-0.1-0.1-0.2-0.2-0.4v0.1l0,0c0-0.1,0-0.2,0-0.2c0.1-0.2,0.1-0.2,0.1-0.2l0.1-0.1c0.2-0.2,0.2-0.3,0.4-0.5
		c0.5-0.6,1.1-1.2,1.7-1.7c0.6-0.6,1.1-1,1.5-1.5c0.2-0.2,0.4-0.5,0.5-0.8c0.1-0.2,0.2-0.2,0.2-0.4c0.1-0.1,0.1-0.3,0.1-0.3v-0.1
		l0.1-0.2c0.2-0.5,0.4-1.2,0.6-1.9c0.2-0.7,0.2-1.4,0.4-2.1c0.2-1.4,0.4-2.9,0.6-4.3c0.3-2.9,0.5-5.8,0.7-8.7s0.3-5.8,0.5-8.8
		l0.2-2.2l0.1-1.1c0-0.2,0.1-0.4,0.1-0.6c0.1-0.2,0.1-0.4,0.2-0.6l1-4.3c1.3-5.7,2.7-11.4,4.2-17.1c0.7-2.8,1.4-5.7,2.2-8.6
		C197.6,336.5,198.3,333.7,199.1,330.8z"/>
</g>
<g>
	<path class="st13" d="M311.8,231.6c0,0,0.9,0.5,2.6,1.5c1.6,1,4,2.3,6.7,4.1c2.7,1.7,6,3.7,9.4,5.9c1.7,1.1,3.5,2.2,5.2,3.4
		s3.6,2.4,5.4,3.6c1.8,1.2,3.6,2.4,5.3,3.7c1.7,1.2,3.5,2.4,5.2,3.6c3.3,2.3,6.4,4.6,9,6.5c1.3,0.9,2.5,1.8,3.6,2.7
		c1.1,0.8,2,1.5,2.7,2.1c1.5,1.2,2.3,1.8,2.3,1.8s-0.9-0.6-2.5-1.6s-3.9-2.5-6.7-4.2s-5.9-3.8-9.3-6.1c-1.7-1.1-3.4-2.2-5.2-3.4
		c-1.7-1.2-3.6-2.4-5.4-3.6c-1.8-1.2-3.6-2.4-5.3-3.7c-1.7-1.2-3.5-2.4-5.2-3.5c-3.3-2.3-6.5-4.5-9.1-6.3c-2.7-1.9-4.8-3.5-6.4-4.6
		C312.6,232.3,311.8,231.6,311.8,231.6z"/>
</g>
<path class="st31" d="M342.3,72.3l4.7,22.9l7.2,77.3l-2.8,4.6l-6.3,0.7l1-3.3c0,0-1-74.2-1.3-75.5C344.3,97.5,342.3,72.3,342.3,72.3
	z"/>
<polygon class="st31" points="161.9,71 153,145.2 156,159.5 158.3,146.5 "/>
<path class="st13" d="M164.9,38.8c0,0,80.2-16.2,85.2-16.2s60.6,4,69.3,5.3c0,0-13.2,1-19.2,2c0,0,34.4,5.7,23.2,39.4
	c0,0-0.7-41.8-64.3-23.2s-87.8-1.3-87.8-1.3L164.9,38.8z"/>
<path class="st13" d="M335.2,14.8l-15.5,11.5c0,0,6.5,2.5,7.1,4.3L335.2,14.8z"/>
<path class="st13" d="M338.3,42.9c0,0,6.9,1.3,19.1-6.5c0,0-6.5,11.3-17.1,12.1L338.3,42.9z"/>
<path class="st13" d="M149.3,37.8c0,0,1.8-0.2,11.4,1.2l-2.2,4.9C158.6,43.8,152.2,39,149.3,37.8z"/>
<linearGradient id="SVGID_28_" gradientUnits="userSpaceOnUse" x1="258.6984" y1="281.8615" x2="258.6984" y2="258.2503">
	<stop  offset="0" style="stop-color:#56ABDD;stop-opacity:0"/>
	<stop  offset="1" style="stop-color:#0073B5"/>
</linearGradient>
<path class="st32" d="M258.6,258.6c11.6,0,21,9.1,21.6,20.5c0-0.4,0.1-0.7,0.1-1.2c0-12-9.7-21.6-21.6-21.6
	c-11.9,0-21.6,9.7-21.6,21.6c0,0.4,0,0.7,0.1,1.2C237.6,267.7,247,258.6,258.6,258.6z"/>
<g class="st33">
	<linearGradient id="SVGID_29_" gradientUnits="userSpaceOnUse" x1="258.5984" y1="267.6136" x2="258.5984" y2="323.1676">
		<stop  offset="0" style="stop-color:#FFFFFF;stop-opacity:0"/>
		<stop  offset="1" style="stop-color:#FFFFFF"/>
	</linearGradient>
	<path class="st34" d="M258.6,258.6c-11.5,0-20.8,8.9-21.5,20.2c0.7,11.2,10.1,20.2,21.5,20.2c11.5,0,20.8-8.9,21.5-20.2
		C279.4,267.6,270,258.6,258.6,258.6z"/>
	<path class="st13" d="M258.6,299.1c-11.5,0-20.8-8.9-21.5-20.2c0,0.1,0,0.2,0,0.3c0.6,11.4,10.1,20.5,21.6,20.5
		c11.6,0,21-9.1,21.6-20.5c0-0.1,0-0.2,0-0.3C279.4,290.2,270,299.1,258.6,299.1z"/>
</g>
<g>
	<path class="st35" d="M272,265.8c-0.1-0.3-0.3-0.5-0.6-0.4l-6,1.7c-0.1,0-0.2,0.1-0.2,0.2l-1.8,3.4l-0.3,0.7h-11
		c-0.2,0-0.5,0.2-0.5,0.5l0,0c0,0,0,0,0,0.1l2.2,18.2c0.1,0.9,2.2,1.3,6.3,1.3s6.2-0.5,6.3-1.3l2.2-18.3l0,0l0,0
		c0-0.3-0.2-0.5-0.5-0.5h-3.9l0.3-0.7l1.4-2.6l5.8-1.7C271.9,266.5,272,266.1,272,265.8z M262.4,272.4l-1.7,3.2H253l-0.4-3.2H262.4z
		 M256.7,286.8c0,0.2-0.2,0.4-0.3,0.4l0,0c-0.2,0-0.4-0.2-0.4-0.3l-0.8-9.2c0-0.2,0.2-0.4,0.3-0.4c0.2,0,0.4,0.2,0.4,0.3
		L256.7,286.8z M260,290.5c-3,0-4.8-0.3-5.2-0.5l-0.2-1.7c0.7,0.2,2.7,0.5,5.1,0.5c2.6,0,4.9-0.2,5.7-0.6l-0.2,1.8
		C264.8,290.2,263,290.5,260,290.5z M267.3,272.4l-0.4,3.2h-5.1l1.7-3.2H267.3z"/>
	<path class="st35" d="M250.7,274.7c-2.1-0.1-3.7-1.9-3.7-4c0-2.2,1.8-4,4-4c2,0,3.7,1.5,4,3.5c0,0.2,0.2,0.4,0.5,0.4
		c0.2,0,0.4-0.2,0.4-0.5c-0.3-2.5-2.4-4.3-4.9-4.3c-2.7,0-4.9,2.2-4.9,4.9c0,2.6,2.1,4.7,4.7,4.9l0,0c0.2,0,0.5-0.2,0.5-0.4
		C251.1,274.9,250.9,274.7,250.7,274.7z"/>
	<path class="st35" d="M247.5,270.4h2.8l-2-2C247.8,269,247.6,269.7,247.5,270.4z"/>
	<path class="st35" d="M250.7,267.3c-0.7,0.1-1.4,0.3-2,0.8l2,2V267.3z"/>
	<path class="st35" d="M248.3,272.9L248.3,272.9l2-2h-2.8C247.6,271.7,247.8,272.4,248.3,272.9z"/>
	<path class="st35" d="M250.7,271.1l-2.1,2.1l0,0c0.6,0.5,1.2,0.8,2.1,0.8V271.1z"/>
	<path class="st35" d="M251.1,267.3v2.8l2-2C252.6,267.6,251.9,267.4,251.1,267.3z"/>
	<path class="st35" d="M253.5,268.5l-2.2,2h2.9C254.2,269.7,254,269,253.5,268.5z"/>
</g>
<path class="st36" d="M249.2,205.3c0,0,8.7,18.8-4.8,32.1h-74.5c0,0-38.4,1-31.5,37.5c6.9,36.5,19.5,67.6,76,65.3
	s119.7-1.9,122.9-48c3.9-56.5-53.8-54.1-53.8-54.1S286.3,215.8,249.2,205.3z"/>
<linearGradient id="SVGID_30_" gradientUnits="userSpaceOnUse" x1="180.7743" y1="217.5466" x2="306.4178" y2="343.1902">
	<stop  offset="0" style="stop-color:#FFFFFF"/>
	<stop  offset="0.5569" style="stop-color:#FBFBFB"/>
	<stop  offset="1" style="stop-color:#F2F2F2"/>
</linearGradient>
<path class="st37" d="M256.9,203.6c0,0,8.7,19.6-4.8,32.1h-74.5c0,0-38.4,1-31.5,37.5c6.9,36.5,19.5,67.6,76,65.3
	s119.7-1.9,122.9-48c3.9-56.5-53.8-54.1-53.8-54.1S294,214.2,256.9,203.6z"/>
<g class="st38">
	<path class="st39" d="M168.8,288.8c0.2,0.6,0.2,1.2,0.2,1.6s-0.2,0.9-0.4,1.2c-0.2,0.4-0.5,0.7-0.8,0.9c-0.3,0.3-0.6,0.5-0.9,0.8
		c-0.3,0.2-0.5,0.5-0.7,0.7c-0.2,0.2-0.3,0.5-0.3,0.8c0,0.4,0.1,0.6,0.4,0.8c0.3,0.2,0.6,0.3,1.1,0.3c0.5,0,0.9-0.2,1.1-0.5
		c0.3-0.3,0.4-0.7,0.4-1.1v-0.4h2.5v0.4c0,0.6-0.1,1.1-0.3,1.6c-0.2,0.5-0.5,0.9-0.9,1.3s-0.8,0.6-1.3,0.8c-0.5,0.2-1,0.3-1.6,0.3
		c-0.7,0-1.3-0.1-1.8-0.3c-0.5-0.2-1-0.4-1.3-0.7c-0.4-0.3-0.6-0.7-0.8-1.1c-0.2-0.4-0.3-0.8-0.3-1.3c0-0.6,0.1-1,0.3-1.4
		s0.4-0.7,0.7-1c0.3-0.3,0.6-0.5,0.9-0.7c0.3-0.2,0.6-0.5,0.8-0.7c0.2-0.3,0.4-0.6,0.5-1c0.1-0.4,0.1-0.8,0-1.4H168.8z M168.9,284v3
		H166v-3H168.9z"/>
	<path class="st39" d="M175.5,285.6v0.4c0,0.1,0,0.2,0,0.3s0,0.3,0,0.4v7.9H173v-14.1h2.9l4.3,9h0c0-0.1,0-0.3,0-0.4v-0.7v-7.9h2.6
		v14.1h-2.9L175.5,285.6L175.5,285.6z"/>
	<path class="st39" d="M185.3,285.2c0-0.9,0.1-1.6,0.3-2.2c0.2-0.5,0.4-0.8,0.7-1.2s0.6-0.6,1-0.9c0.4-0.2,0.8-0.4,1.2-0.5
		c0.4-0.1,0.9-0.2,1.3-0.2h0.2c0.5,0,0.9,0.1,1.3,0.2c0.4,0.1,0.8,0.3,1.2,0.5c0.4,0.2,0.7,0.5,1,0.9c0.3,0.3,0.5,0.7,0.7,1.2
		c0.2,0.6,0.4,1.3,0.4,2.2v4.6c0,0.9-0.1,1.6-0.4,2.2c-0.2,0.5-0.4,0.8-0.7,1.2s-0.6,0.6-1,0.9c-0.4,0.2-0.8,0.4-1.2,0.5
		s-0.9,0.2-1.3,0.2H190c-0.5,0-0.9-0.1-1.3-0.2c-0.4-0.1-0.8-0.3-1.2-0.5c-0.4-0.2-0.7-0.5-1-0.9c-0.3-0.3-0.5-0.7-0.7-1.2
		c-0.2-0.6-0.3-1.3-0.3-2.2V285.2z M192.1,285.2c0-0.3,0-0.5,0-0.8c0-0.2-0.1-0.4-0.2-0.6c-0.2-0.4-0.4-0.6-0.7-0.8
		c-0.3-0.2-0.6-0.2-1-0.2H190c-0.3,0-0.7,0.1-1,0.2c-0.3,0.2-0.5,0.4-0.7,0.8c-0.1,0.2-0.1,0.4-0.2,0.6c0,0.2,0,0.5,0,0.8v4.6
		c0,0.3,0,0.5,0,0.8c0,0.2,0.1,0.4,0.2,0.6c0.2,0.4,0.4,0.6,0.7,0.8c0.3,0.2,0.6,0.2,1,0.2h0.2c0.3,0,0.6-0.1,1-0.2
		c0.3-0.2,0.6-0.4,0.7-0.8c0.1-0.2,0.1-0.4,0.2-0.6s0-0.5,0-0.8V285.2z"/>
	<path class="st39" d="M201.6,280.5h2.8v11.5h5.9v2.6h-8.7V280.5z"/>
	<path class="st39" d="M212.1,280.5h2.8v11.5h5.9v2.6h-8.7V280.5z"/>
	<path class="st39" d="M222.7,280.5h8.5v2.5h-5.8v3.1h4.8v2.5h-4.8v3.4h5.8v2.5h-8.5V280.5z"/>
	<path class="st39" d="M237.9,291.2L237.9,291.2l2.8-10.8h2.8l-3.9,14.1h-3.3l-3.9-14.1h2.8L237.9,291.2z"/>
	<path class="st39" d="M247,290.9l-0.9,3.6h-2.8l4-14.1h3.2l4,14.1h-2.8l-0.9-3.6H247z M248.8,283.9L248.8,283.9l-1.2,4.5h2.3
		L248.8,283.9z"/>
	<path class="st39" d="M262.1,284.7c0-0.6-0.2-1-0.5-1.4c-0.3-0.4-0.8-0.5-1.5-0.5c-0.6,0-1,0.1-1.3,0.4c-0.3,0.3-0.4,0.6-0.4,1
		c0,0.4,0.1,0.8,0.4,1s0.6,0.5,1.1,0.6l1.2,0.4c0.6,0.2,1.1,0.4,1.5,0.7c0.5,0.3,0.9,0.6,1.2,0.9c0.3,0.4,0.6,0.8,0.8,1.2
		c0.2,0.5,0.3,1,0.3,1.6c0,0.6-0.1,1.2-0.4,1.7c-0.2,0.5-0.6,1-1,1.3c-0.4,0.4-0.9,0.6-1.5,0.8c-0.6,0.2-1.2,0.3-1.9,0.3
		c-0.8,0-1.5-0.1-2.1-0.3c-0.6-0.2-1.1-0.5-1.5-0.9c-0.4-0.4-0.7-0.9-1-1.5c-0.2-0.6-0.3-1.2-0.4-1.8h2.7c0,0.6,0.2,1.1,0.6,1.5
		c0.4,0.4,0.9,0.6,1.5,0.6c0.6,0,1.1-0.1,1.4-0.4c0.4-0.3,0.6-0.7,0.6-1.2c0-0.5-0.2-0.8-0.6-1.1c-0.4-0.3-0.8-0.5-1.3-0.7l-1.2-0.4
		c-0.5-0.2-0.9-0.4-1.4-0.6c-0.4-0.2-0.8-0.5-1.1-0.8c-0.3-0.3-0.6-0.7-0.7-1.1c-0.2-0.5-0.3-1-0.3-1.6c0-0.6,0.1-1.2,0.4-1.6
		c0.2-0.5,0.6-0.9,1-1.2c0.4-0.3,0.9-0.6,1.5-0.8c0.6-0.2,1.1-0.3,1.8-0.3c0.7,0,1.3,0.1,1.8,0.3c0.6,0.2,1.1,0.4,1.5,0.8
		c0.4,0.4,0.7,0.8,1,1.4s0.3,1.2,0.3,2H262.1z"/>
	<path class="st39" d="M273.9,285.6v0.4c0,0.1,0,0.2,0,0.3s0,0.3,0,0.4v7.9h-2.6v-14.1h2.9l4.3,9h0c0-0.1,0-0.3,0-0.4v-0.7v-7.9h2.6
		v14.1h-2.9L273.9,285.6L273.9,285.6z"/>
	<path class="st39" d="M286.5,290.9l-0.9,3.6h-2.8l4-14.1h3.2l4,14.1h-2.8l-0.9-3.6H286.5z M288.3,283.9L288.3,283.9l-1.2,4.5h2.3
		L288.3,283.9z"/>
	<path class="st39" d="M295.5,294.6v-14.1h4.5c1.1,0,2.1,0.2,2.8,0.7c0.8,0.5,1.3,1.2,1.7,2.1c0.1,0.3,0.2,0.6,0.3,1
		c0.1,0.4,0.1,0.8,0.1,1.2v4.3c0,0.4,0,0.8-0.1,1.2c-0.1,0.4-0.2,0.7-0.3,1c-0.4,0.9-0.9,1.6-1.7,2.1s-1.7,0.7-2.8,0.7H295.5z
		 M300,291.9c0.5,0,0.9-0.1,1.2-0.2c0.3-0.2,0.5-0.4,0.7-0.8c0.1-0.2,0.1-0.4,0.2-0.6c0-0.2,0-0.5,0-0.7v-4.2c0-0.3,0-0.5,0-0.7
		c0-0.2-0.1-0.4-0.2-0.6c-0.2-0.4-0.4-0.6-0.7-0.8c-0.3-0.2-0.7-0.2-1.2-0.2h-1.8v8.8H300z"/>
	<path class="st39" d="M309.9,290.9l-0.9,3.6h-2.8l4-14.1h3.2l4,14.1h-2.8l-0.9-3.6H309.9z M311.8,283.9L311.8,283.9l-1.2,4.5h2.3
		L311.8,283.9z"/>
	<path class="st39" d="M320.7,289.8c-0.2-0.6-0.2-1.2-0.2-1.6c0.1-0.5,0.2-0.9,0.4-1.2c0.2-0.4,0.5-0.7,0.8-0.9
		c0.3-0.3,0.6-0.5,0.9-0.8c0.3-0.2,0.5-0.5,0.7-0.7c0.2-0.2,0.3-0.5,0.3-0.8c0-0.4-0.1-0.6-0.4-0.8c-0.3-0.2-0.6-0.3-1.1-0.3
		c-0.5,0-0.9,0.2-1.1,0.5c-0.3,0.3-0.4,0.7-0.4,1.1v0.4h-2.5v-0.4c0-0.6,0.1-1.1,0.3-1.6c0.2-0.5,0.5-0.9,0.9-1.3s0.8-0.6,1.3-0.8
		c0.5-0.2,1-0.3,1.6-0.3c0.7,0,1.3,0.1,1.8,0.3c0.5,0.2,1,0.4,1.3,0.7s0.6,0.7,0.8,1.1s0.3,0.8,0.3,1.3c0,0.6-0.1,1-0.3,1.4
		s-0.4,0.7-0.7,1c-0.3,0.3-0.6,0.5-0.9,0.7s-0.6,0.5-0.8,0.7c-0.2,0.3-0.4,0.6-0.5,1c-0.1,0.4-0.1,0.8,0,1.4H320.7z M320.6,294.6v-3
		h2.9v3H320.6z"/>
</g>
</svg>
