<?xml version="1.0" encoding="utf-8"?>
<!-- Generator: Adobe Illustrator 19.1.0, SVG Export Plug-In . SVG Version: 6.00 Build 0)  -->
<svg version="1.1" id="Capa_1" xmlns="http://www.w3.org/2000/svg" xmlns:xlink="http://www.w3.org/1999/xlink" x="0px" y="0px"
	 viewBox="0 0 133 43" style="enable-background:new 0 0 133 43;" xml:space="preserve">
<style type="text/css">
	.st0{fill:url(#SVGID_1_);}
	.st1{fill:#FFFFFF;}
	.st2{fill:#FFC609;}
	.st3{fill:#FFFFFF;stroke:#FF0000;stroke-width:5;stroke-miterlimit:10;}
	.st4{fill:url(#SVGID_2_);}
	.st5{fill:#FF0019;}
</style>
<g>
	<path class="st1" d="M39.8,16.1c0-0.9,0.6-1.5,1.5-1.5h3.3c4.4,0,7,2.9,7,7.2c0,4.2-2.7,6.9-6.8,6.9h-3.4c-0.7,0-1.6-0.4-1.6-1.5
		V16.1z M42.8,26h2c2.6,0,3.7-1.9,3.7-4.3c0-2.5-1.2-4.4-3.9-4.4h-1.8V26z"/>
	<path class="st1" d="M53.5,16.1c0-1,0.5-1.5,1.5-1.5h3.5c3.1,0,4.9,1.4,4.9,4.5c0,2.2-1.6,3.4-3.7,3.7l3.4,3.6
		c0.3,0.3,0.4,0.6,0.4,0.9c0,0.8-0.6,1.5-1.5,1.5c-0.4,0-0.8-0.1-1.1-0.5L56.6,23h0v4.3c0,1-0.6,1.5-1.5,1.5c-0.9,0-1.5-0.6-1.5-1.5
		V16.1z M56.5,20.8h2c1.1,0,1.8-0.7,1.8-1.8c0-1.1-0.8-1.7-1.8-1.7h-2V20.8z"/>
	<path class="st1" d="M65.1,16c0-1,0.6-1.5,1.5-1.5c0.9,0,1.5,0.6,1.5,1.5v11.3c0,1-0.6,1.5-1.5,1.5c-0.9,0-1.5-0.6-1.5-1.5V16z"/>
	<path class="st1" d="M70.2,16c0-1,0.6-1.5,1.5-1.5c0.4,0,1,0.3,1.2,0.7l6.3,8.4h0V16c0-1,0.6-1.5,1.5-1.5c0.9,0,1.5,0.6,1.5,1.5
		v11.3c0,1-0.6,1.5-1.5,1.5c-0.4,0-1-0.3-1.2-0.7l-6.3-8.3h0v7.4c0,1-0.6,1.5-1.5,1.5c-0.9,0-1.5-0.6-1.5-1.5V16z"/>
	<path class="st1" d="M84.4,15.9c0-0.8,0.6-1.5,1.5-1.5c0.9,0,1.5,0.6,1.5,1.5v4.3l4.9-5.2c0.2-0.2,0.6-0.6,1.1-0.6
		c0.8,0,1.5,0.6,1.5,1.4c0,0.5-0.3,0.9-1,1.6l-3.7,3.7l4.6,4.8c0.5,0.5,0.8,0.9,0.8,1.5c0,0.9-0.7,1.4-1.5,1.4c-0.6,0-1-0.3-1.5-0.9
		l-5.1-5.5v5.1c0,0.8-0.6,1.4-1.5,1.4c-0.9,0-1.5-0.6-1.5-1.4V15.9z"/>
	<path class="st1" d="M97.9,28.1c-0.1,0.4-0.4,0.7-0.9,0.7c-0.5,0-0.8-0.3-0.8-0.7c0-0.2,0.2-0.7,0.2-0.9l4.4-11.7
		c0.2-0.6,0.6-1.1,1.2-1.1c0.7,0,1,0.5,1.2,1.1l4.4,11.7c0.1,0.2,0.2,0.6,0.2,0.9c0,0.5-0.4,0.7-0.8,0.7c-0.5,0-0.7-0.3-0.9-0.7
		l-0.9-2.5h-6.5L97.9,28.1z M102.1,16.5L102.1,16.5l-2.8,7.6h5.5L102.1,16.5z"/>
	<path class="st1" d="M111.6,27.9c0,0.6-0.3,0.9-0.9,0.9c-0.5,0-0.9-0.4-0.9-0.9V15.5c0-0.5,0.3-1,0.9-1h3.4c2.8,0,4.6,2,4.6,4.4
		c0,2.5-1.9,4.4-4.5,4.4h-2.7V27.9z M111.6,21.9h2.6c1.7,0,2.9-1.3,2.9-2.9c0-1.4-0.8-2.9-3-2.9h-2.5V21.9z"/>
	<path class="st1" d="M122.3,27.9c0,0.6-0.3,0.9-0.9,0.9c-0.5,0-0.9-0.4-0.9-0.9V15.5c0-0.5,0.3-1,0.9-1h3.4c2.8,0,4.6,2,4.6,4.4
		c0,2.5-1.9,4.4-4.5,4.4h-2.7V27.9z M122.3,21.9h2.6c1.7,0,2.9-1.3,2.9-2.9c0-1.4-0.8-2.9-3-2.9h-2.5V21.9z"/>
</g>
<g>
	<path class="st2" d="M32.2,17.8H12.1l2.2,16.6c0.3,0.4,3.2,1,7.3,1c4.2,0,7.8-0.6,8.2-1L32.2,17.8z"/>
	<path class="st1" d="M28,11.3l1.8-3.5l7.8-2.2c0.3-0.1,0.5-0.5,0.5-0.9c-0.1-0.4-0.4-0.7-0.8-0.6l-8,2.2c-0.2,0-0.3,0.2-0.4,0.3
		l-2.4,4.6l-3.4,6.5h1.5L28,11.3z"/>
	<path class="st1" d="M22.1,39.2c-5.5,0-8.3-0.6-8.4-1.8L10.8,13c0,0,0,0,0-0.1c0,0,0,0,0,0c0-0.4,0.3-0.7,0.6-0.7h21.4
		c0.4,0,0.6,0.3,0.6,0.7c0,0,0,0,0,0c0,0,0,0,0,0.1l-2.9,24.4C30.5,38.6,27.6,39.2,22.1,39.2 M15.1,37c0.5,0.2,2.9,0.7,7,0.7
		c4,0,6.4-0.5,7-0.7l2.8-23.4H12.3L15.1,37z"/>
	<path class="st1" d="M9.6,16.5c-2.8-0.2-5-2.5-5-5.3c0-3,2.4-5.3,5.3-5.3c2.7,0,5,2,5.3,4.7c0,0.3,0.4,0.6,0.7,0.5
		c0.4,0,0.6-0.4,0.6-0.7c-0.4-3.3-3.2-5.8-6.6-5.8c-3.6,0-6.6,3-6.6,6.6c0,3.5,2.7,6.4,6.2,6.6h0c0.3,0,0.6-0.3,0.6-0.6
		C10.2,16.8,10,16.5,9.6,16.5"/>
	<path class="st1" d="M5.4,10.9h3.8L6.5,8.2C5.9,8.9,5.5,9.9,5.4,10.9"/>
	<path class="st1" d="M9.6,6.7C8.6,6.7,7.7,7.1,7,7.8l2.7,2.7V6.7z"/>
	<path class="st1" d="M6.5,14.2C6.5,14.2,6.5,14.1,6.5,14.2l2.7-2.7H5.4C5.5,12.5,5.9,13.4,6.5,14.2"/>
	<path class="st1" d="M9.7,11.8L7,14.6c0,0,0,0,0,0c0.7,0.7,1.7,1.1,2.8,1.1V11.8z"/>
	<path class="st1" d="M10.3,6.7v3.8l2.7-2.7C12.2,7.1,11.3,6.7,10.3,6.7"/>
	<path class="st1" d="M13.4,8.3l-2.8,2.7h3.9C14.5,9.9,14.1,9,13.4,8.3"/>
	<path class="st1" d="M17.6,32.7c0,0.3-0.2,0.6-0.5,0.6h0c-0.3,0-0.5-0.2-0.6-0.5l-1.2-12.3c0-0.3,0.2-0.6,0.5-0.6
		c0.3,0,0.6,0.2,0.6,0.5L17.6,32.7z"/>
</g>
</svg>
