<?xml version="1.0" encoding="utf-8"?>
<!-- Generator: Adobe Illustrator 19.1.0, SVG Export Plug-In . SVG Version: 6.00 Build 0)  -->
<svg version="1.1" id="Capa_1" xmlns="http://www.w3.org/2000/svg" xmlns:xlink="http://www.w3.org/1999/xlink" x="0px" y="0px"
	 viewBox="413.8 -323.8 891.1 988.5" style="enable-background:new 413.8 -323.8 891.1 988.5;" xml:space="preserve">
<style type="text/css">
	.st0{fill:#FF0000;}
	.st1{fill:#FFC609;}
	.st2{fill:#FFFFFF;}
</style>
<g>
	<g>
		<path class="st0" d="M1277.7,112c0-231.1-187.3-418.4-418.4-418.4c-231,0-418.4,187.3-418.4,418.4
			c0,178.3,111.5,330.4,268.6,390.6c69.2,76.6,149.8,144.8,149.8,144.8s80.7-68.3,149.8-144.8C1166.1,442.3,1277.7,290.2,1277.7,112
			"/>
		<path class="st1" d="M1008.2,63.4H718.7l31.8,239.9c4.9,5.8,45.7,13.9,105.9,13.9c60.1,0,113.1-8.1,117.9-13.9L1008.2,63.4z"/>
		<path class="st2" d="M948.1-30.5l26.7-50.4l112.7-31.3c4.9-1.4,7.9-7.4,6.7-13.2c-1.1-5.9-6-9.5-10.8-8.4l-116.1,32.4
			c-2.4,0.6-4.5,2.2-5.6,4.7l-35.3,66.1l-49,94H899L948.1-30.5z"/>
		<path class="st2" d="M862.9,372.2c-79.5,0-120.4-8.8-121.5-26.2L699.1-5.8c0-0.3,0-0.7,0-1c0-0.2,0-0.3,0-0.4
			c0-5.7,4.2-10.4,9.3-10.4h309.1c5.1,0,9.3,4.7,9.3,10.4c0,0.1,0,0.3,0,0.4c0,0.3,0,0.5,0,0.8l-42.3,352.3
			C983.3,363.4,942.4,372.2,862.9,372.2 M762.1,341.1c7.8,3.4,42.5,10,100.8,10c58,0,92.7-6.6,100.8-10.1l40.6-338H721.5
			L762.1,341.1z"/>
		<path class="st2" d="M682.6,45.4C642,43,610,9.1,610-31.6c0-42.6,34.5-77.2,77.1-77.2c39,0,71.9,29,76.7,67.7
			c0.6,5,5.1,8.5,10,7.9c5.1-0.6,8.6-5.1,8-10.1c-5.9-47.6-46.5-83.5-94.6-83.5c-52.5,0-95.1,42.6-95.1,95.3
			c0,50.5,39.4,92.1,89.6,95.1h0.4c4.9,0,9-3.7,9.1-8.6C691.5,49.9,687.8,45.6,682.6,45.4"/>
		<path class="st2" d="M622.1-36.2h54.2l-38.4-38.5C628.8-64.2,622.9-50.9,622.1-36.2"/>
		<path class="st2" d="M682.6-96.9c-14.6,1-27.9,6.7-38.4,15.8l38.4,38.4V-96.9z"/>
		<path class="st2" d="M638,11.3c0-0.2,0.1-0.4,0.2-0.5l38-38H622C622.9-12.5,628.8,0.9,638,11.3"/>
		<path class="st2" d="M684.1-22.3l-39.5,40.4c-0.1,0.1-0.3,0.1-0.4,0.3c10.7,9.6,24.5,15.5,39.9,15.5V-22.3z"/>
		<path class="st2" d="M691.8-96.9v54.2l38.4-38.4C719.7-90.1,706.5-95.9,691.8-96.9"/>
		<path class="st2" d="M737.2-73.7l-41,38.5h56.3C752.6-49.9,746.9-63.2,737.2-73.7"/>
		<path class="st2" d="M798,278.7c0.4,4.3-2.7,8-7,8.4h-0.3c-4.1,0.2-7.7-2.8-8.2-7l-16.8-177.9c-0.4-4.4,2.9-8.1,7-8.5
			c4.1-0.2,8,2.7,8.5,7L798,278.7z"/>
	</g>
</g>
</svg>
