<?xml version="1.0" encoding="utf-8"?>
<!-- Generator: Adobe Illustrator 19.1.0, SVG Export Plug-In . SVG Version: 6.00 Build 0)  -->
<svg version="1.1" id="Capa_1" xmlns="http://www.w3.org/2000/svg" xmlns:xlink="http://www.w3.org/1999/xlink" x="0px" y="0px"
	 viewBox="-37 0 506 430" style="enable-background:new -37 0 506 430;" xml:space="preserve">
<style type="text/css">
	.st0{fill:none;stroke:#007AD0;stroke-width:8.352;stroke-miterlimit:10;}
	.st1{fill:#EAF6F8;}
	.st2{opacity:0.5;fill:url(#SVGID_1_);enable-background:new    ;}
	.st3{fill:url(#SVGID_2_);}
	.st4{fill:url(#SVGID_3_);}
	.st5{fill:url(#SVGID_4_);}
	.st6{fill:url(#SVGID_5_);}
	.st7{fill:url(#SVGID_6_);}
	.st8{fill:url(#SVGID_7_);}
	.st9{fill:url(#SVGID_8_);}
	.st10{opacity:0.5;fill:url(#SVGID_9_);enable-background:new    ;}
	.st11{fill:url(#SVGID_10_);}
	.st12{fill:url(#SVGID_11_);}
	.st13{fill:#FFFFFF;}
	.st14{opacity:0.5;fill:url(#SVGID_12_);enable-background:new    ;}
	.st15{opacity:0.5;fill:url(#SVGID_13_);enable-background:new    ;}
	.st16{opacity:0.5;fill:url(#SVGID_14_);enable-background:new    ;}
	.st17{fill:url(#SVGID_15_);}
	.st18{fill:url(#SVGID_16_);}
	.st19{opacity:0.4;fill:url(#SVGID_17_);enable-background:new    ;}
	.st20{opacity:0.5;fill:url(#SVGID_18_);enable-background:new    ;}
	.st21{opacity:0.5;fill:url(#SVGID_19_);enable-background:new    ;}
	.st22{fill:#007AD0;}
	.st23{opacity:0.5;fill:url(#SVGID_20_);enable-background:new    ;}
	.st24{opacity:0.5;fill:url(#SVGID_21_);enable-background:new    ;}
	.st25{opacity:0.5;fill:url(#SVGID_22_);enable-background:new    ;}
	.st26{fill:url(#SVGID_23_);}
	.st27{fill:url(#SVGID_24_);}
	.st28{fill:url(#SVGID_25_);}
	.st29{opacity:0.5;fill:url(#SVGID_26_);enable-background:new    ;}
	.st30{opacity:0.4;fill:url(#SVGID_27_);enable-background:new    ;}
	.st31{opacity:0.6;fill:#FFFFFF;enable-background:new    ;}
	.st32{opacity:0.5;fill:url(#SVGID_28_);enable-background:new    ;}
	.st33{opacity:0.4;}
	.st34{fill:url(#SVGID_29_);}
	.st35{fill:#74B7C9;}
	.st36{opacity:0.34;enable-background:new    ;}
	.st37{fill:url(#SVGID_30_);}
	.st38{fill:#333333;}
	.st39{font-family:'Louis-Bold';}
	.st40{font-size:18.8344px;}
</style>
<path class="st0" d="M128.1,204.9c0,0,39.3,24.4,43,25.7c0,0-49.7,42.2-59.7,52.6c0,0-12.7,9.4-16.1,20.7s-5,27.5-3.7,28.8
	c1.3,1.3,16.1-14.7,25.1-16.1c0,0,9.7,6.7,11.4,7c1.7,0.3,7.7-15.1,8.4-16.1c0.7-1,18.1-16.6,24.5-20.9c0,0,6.3,29.8,6.7,43.5
	c0,0-7.8,35.5-8.5,39.5s-1.2,29-3.6,31.3c-2.3,2.3-4.3,3.8-4,5.1c1,3.6,16.9,12.6,34.7,9.6c16.8-2.9,16.5-12.2,16.5-12.2
	s0.2-5.9,0-6.5s19.7-42.8,20.4-43.1c0,0,1.6,0.1,5,0.1s7.2-0.6,7.2-0.6s15.9,23.4,20.6,29.3c0,0,7.9,25.4,13,28.5
	c2.8,1.7,15.1,6.2,26.3,4.8c9.2-1.2,17.9-7.9,18-9c0.2-1.8-4.7-4-5-5.7c-0.2-1.7-5.7-25.6-5.7-26.4s2.9-10-0.8-18.1
	c-1.6-3.5-12.1-27.8-12.1-27.8s-7.7-49.3-7.6-52.2c0,0,24.3,10.3,25.4,12.4c1.1,2,7.7,11.9,9.2,12.1c1.4,0.2,4.7-6,6.7-9
	c0,0,6.8,2.5,12.6,7c5.9,4.6,10.7,11.2,11.7,11.6c2,0.7,0.2-33.4-5.1-39.1c-5.2-5.7-59.8-40.9-59.8-40.9s20.9-13.6,34.6-24.6
	c0,0,19.7-15.1,20.7-29.7c0.2-2.2-3.3-2.2-6.6-2.7c-3.7-0.7-7.2-1.7-7.2-1.7s-1.9-42.7-5.5-77.3c0,0,9.1-35.1,9.7-40
	c0.7-4.9,1.5-18.1,0.6-19.4c-0.9-1.2-9.7,7.2-20.6,7.2c0,0-0.3-28.5-1.8-29.1c-1.5-0.6-17,12.7-17,12.7s-59.3-5.7-69.8-5.2
	c-10.5,0.6-65.6,9.4-88.6,17c0,0-2.8-0.4-5.8-0.8c-3-0.4-6.1-0.8-6.9-0.1c-0.7,0.6-0.2,8,0.8,14.6c1.3,8.8,3,15,3.3,17.2
	s5.6,13.6,5.6,13.6s-6.3,61.5-6.3,62.8s3.2,13.1,3.2,13.1s-14.9-3.7-15.9-3.7s9.6,20.4,9.6,20.4s-16.6-1.7-18.2,0
	C98.7,176.6,126.8,204.2,128.1,204.9"/>
<path class="st1" d="M128.1,204.9c0,0,39.3,24.4,43,25.7c0,0-49.7,42.2-59.7,52.6c0,0-12.7,9.4-16.1,20.7s-5,27.5-3.7,28.8
	c1.3,1.3,16.1-14.7,25.1-16.1c0,0,9.7,6.7,11.4,7c1.7,0.3,7.7-15.1,8.4-16.1c0.7-1,18.1-16.6,24.5-20.9c0,0,6.3,29.8,6.7,43.5
	c0,0-7.8,35.5-8.5,39.5s-1.2,29-3.6,31.3c-2.3,2.3-4.3,3.8-4,5.1c1,3.6,16.9,12.6,34.7,9.6c16.8-2.9,16.5-12.2,16.5-12.2
	s0.2-5.9,0-6.5s19.7-42.8,20.4-43.1c0,0,2.4,0.1,5.7,0.1c3.4,0,6.3-1,6.3-1s16,23.9,20.7,29.7c0,0,7.9,25.4,13,28.5
	c2.8,1.7,15.1,6.2,26.3,4.8c9.2-1.2,17.9-7.9,18-9c0.2-1.8-4.7-4-5-5.7c-0.2-1.7-5.7-25.6-5.7-26.4s2.9-10-0.8-18.1
	c-1.6-3.5-12.1-27.8-12.1-27.8s-7.7-49.3-7.6-52.2c0,0,24.3,10.3,25.4,12.4c1.1,2,7.7,11.9,9.2,12.1c1.4,0.2,4.7-6,6.7-9
	c0,0,6.8,2.5,12.6,7c5.9,4.6,10.7,11.2,11.7,11.6c2,0.7,0.2-33.4-5.1-39.1c-5.2-5.7-59.8-40.9-59.8-40.9s20.9-13.6,34.6-24.6
	c0,0,19.7-15.1,20.7-29.7c0.2-2.2-3.3-2.2-6.6-2.7c-3.7-0.7-7.2-1.7-7.2-1.7s-1.9-42.7-5.5-77.3c0,0,9.1-35.1,9.7-40
	c0.7-4.9,1.5-18.1,0.6-19.4c-0.9-1.2-9.7,7.2-20.6,7.2c0,0-0.3-28.5-1.8-29.1c-1.5-0.6-17,12.7-17,12.7s-59.3-5.7-69.8-5.2
	c-10.5,0.6-65.6,9.4-88.6,17c0,0-2.8-0.4-5.8-0.8c-3-0.4-6.1-0.8-6.9-0.1c-0.7,0.6-0.2,8,0.8,14.6c1.3,8.8,3,15,3.3,17.2
	s5.6,13.6,5.6,13.6s-6.3,61.5-6.3,62.8s3.2,13.1,3.2,13.1s-14.9-3.7-15.9-3.7s9.6,20.4,9.6,20.4s-16.6-1.7-18.2,0
	C98.7,176.6,126.8,204.2,128.1,204.9"/>
<linearGradient id="SVGID_1_" gradientUnits="userSpaceOnUse" x1="220.2366" y1="462.8622" x2="220.2366" y2="-130.4381" gradientTransform="matrix(1 0 0 -1 0 430)">
	<stop  offset="0" style="stop-color:#56ABDD;stop-opacity:0"/>
	<stop  offset="1" style="stop-color:#00C7E6"/>
</linearGradient>
<path class="st2" d="M128.1,204.9c0,0,39.3,24.4,43,25.7c0,0-49.7,42.2-59.7,52.6c0,0-12.7,9.4-16.1,20.7s-5,27.5-3.7,28.8
	c1.3,1.3,16.1-14.7,25.1-16.1c0,0,9.7,6.7,11.4,7c1.7,0.3,7.7-15.1,8.4-16.1c0.7-1,18.1-16.6,24.5-20.9c0,0,6.3,29.8,6.7,43.5
	c0,0-7.8,35.5-8.5,39.5s-1.2,29-3.6,31.3c-2.3,2.3-4.3,3.8-4,5.1c1,3.6,16.9,12.6,34.7,9.6c16.8-2.9,16.5-12.2,16.5-12.2
	s0.2-5.9,0-6.5s19.7-42.8,20.4-43.1c0,0,1.6,0.1,5,0.1s7.2-0.7,7.2-0.7s15.8,23.5,20.6,29.4c0,0,7.9,25.4,13,28.5
	c2.8,1.7,15.1,6.2,26.3,4.8c9.2-1.2,17.9-7.9,18-9c0.2-1.8-4.7-4-5-5.7c-0.2-1.7-5.7-25.6-5.7-26.4s2.9-10-0.8-18.1
	c-1.6-3.5-12.1-27.8-12.1-27.8s-7.7-49.3-7.6-52.2c0,0,24.3,10.3,25.4,12.4c1.1,2,7.7,11.9,9.2,12.1c1.4,0.2,4.7-6,6.7-9
	c0,0,6.8,2.5,12.6,7c5.9,4.6,11.1,10.8,11.7,11.6c4.2,4.7,0.2-33.4-5.1-39.1s-59.8-40.9-59.8-40.9s20.9-13.6,34.6-24.6
	c0,0,19.7-15.1,20.7-29.7c0.2-2.2-3.3-2.2-6.6-2.7c-3.7-0.7-7.2-1.7-7.2-1.7s-1.9-42.7-5.5-77.3c0,0,9.1-35.1,9.7-40
	c0.7-4.9,1.5-18.1,0.6-19.4c-0.9-1.2-9.7,7.2-20.6,7.2c0,0-0.3-28.5-1.8-29.1c-1.5-0.6-17,12.7-17,12.7s-59.3-5.7-69.8-5.2
	c-10.5,0.6-65.6,9.4-88.6,17c0,0-2.8-0.4-5.8-0.8c-3-0.4-6.1-0.8-6.9-0.1c-0.7,0.6-0.2,8,0.8,14.6c1.3,8.8,3,15,3.3,17.2
	c0.3,2.2,5.6,13.6,5.6,13.6s-6.3,61.5-6.3,62.8s3.2,13.1,3.2,13.1s-14.9-3.7-15.9-3.7s9.6,20.4,9.6,20.4s-16.6-1.7-18.2,0
	C98.8,176.6,126.8,204.2,128.1,204.9"/>
<g>
	
		<linearGradient id="SVGID_2_" gradientUnits="userSpaceOnUse" x1="175.1772" y1="236.5202" x2="175.1772" y2="297.0771" gradientTransform="matrix(1 0 0 -1 0 430)">
		<stop  offset="0" style="stop-color:#2D5F7C;stop-opacity:0"/>
		<stop  offset="1" style="stop-color:#002851"/>
	</linearGradient>
	<path class="st3" d="M175.2,140.3c-8.1,0-14.6,6.6-14.6,14.6c0,0.7,0.1,1.2,0.2,1.9c0.9-7.2,7.1-12.7,14.5-12.7
		c7.4,0,13.6,5.6,14.5,12.7c0.1-0.7,0.2-1.2,0.2-1.9C189.8,146.8,183.3,140.3,175.2,140.3z"/>
	
		<linearGradient id="SVGID_3_" gradientUnits="userSpaceOnUse" x1="269.1831" y1="236.5202" x2="269.1831" y2="297.0771" gradientTransform="matrix(1 0 0 -1 0 430)">
		<stop  offset="0" style="stop-color:#2D5F7C;stop-opacity:0"/>
		<stop  offset="1" style="stop-color:#002851"/>
	</linearGradient>
	<path class="st4" d="M269.2,144.1c7.4,0,13.6,5.6,14.5,12.7c0.1-0.7,0.2-1.2,0.2-1.9c0-8.1-6.6-14.6-14.6-14.6s-14.6,6.6-14.6,14.6
		c0,0.7,0.1,1.2,0.2,1.9C255.6,149.7,261.8,144.1,269.2,144.1z"/>
	
		<linearGradient id="SVGID_4_" gradientUnits="userSpaceOnUse" x1="175.1772" y1="236.5202" x2="175.1772" y2="297.0771" gradientTransform="matrix(1 0 0 -1 0 430)">
		<stop  offset="0" style="stop-color:#56ABDD;stop-opacity:0"/>
		<stop  offset="1" style="stop-color:#0073B5"/>
	</linearGradient>
	<path class="st5" d="M175.2,144.1c-7.4,0-13.6,5.6-14.5,12.7c0.9,7.2,7.1,12.7,14.5,12.7s13.6-5.6,14.5-12.7
		C188.7,149.7,182.7,144.1,175.2,144.1z"/>
	
		<linearGradient id="SVGID_5_" gradientUnits="userSpaceOnUse" x1="175.1772" y1="232.7083" x2="175.1772" y2="293.2652" gradientTransform="matrix(1 0 0 -1 0 430)">
		<stop  offset="0" style="stop-color:#56ABDD;stop-opacity:0"/>
		<stop  offset="1" style="stop-color:#0073B5"/>
	</linearGradient>
	<path class="st6" d="M175.2,144.1c-7.4,0-13.6,5.6-14.5,12.7c0.9,7.2,7.1,12.7,14.5,12.7s13.6-5.6,14.5-12.7
		C188.7,149.7,182.7,144.1,175.2,144.1z"/>
	
		<linearGradient id="SVGID_6_" gradientUnits="userSpaceOnUse" x1="269.1831" y1="236.5202" x2="269.1831" y2="297.0771" gradientTransform="matrix(1 0 0 -1 0 430)">
		<stop  offset="0" style="stop-color:#56ABDD;stop-opacity:0"/>
		<stop  offset="1" style="stop-color:#0073B5"/>
	</linearGradient>
	<path class="st7" d="M269.2,169.5c7.4,0,13.6-5.6,14.5-12.7c-0.9-7.2-7.1-12.7-14.5-12.7c-7.4,0-13.6,5.6-14.5,12.7
		C255.6,164,261.8,169.5,269.2,169.5z"/>
	
		<linearGradient id="SVGID_7_" gradientUnits="userSpaceOnUse" x1="269.1831" y1="232.7083" x2="269.1831" y2="293.2652" gradientTransform="matrix(1 0 0 -1 0 430)">
		<stop  offset="0" style="stop-color:#56ABDD;stop-opacity:0"/>
		<stop  offset="1" style="stop-color:#0073B5"/>
	</linearGradient>
	<path class="st8" d="M269.2,169.5c7.4,0,13.6-5.6,14.5-12.7c-0.9-7.2-7.1-12.7-14.5-12.7c-7.4,0-13.6,5.6-14.5,12.7
		C255.6,164,261.8,169.5,269.2,169.5z"/>
</g>
<linearGradient id="SVGID_8_" gradientUnits="userSpaceOnUse" x1="278.1088" y1="156.4521" x2="278.1088" y2="185.003" gradientTransform="matrix(0.6138 7.489975e-002 -0.1211 0.9926 67.3442 2.6785)">
	<stop  offset="0" style="stop-color:#56ABDD;stop-opacity:0"/>
	<stop  offset="1" style="stop-color:#0073B5"/>
</linearGradient>
<path class="st9" d="M199.8,208.4c0,0,0.1-0.2,0.3-0.4c0.2-0.2,0.5-0.7,0.9-1.2c0.4-0.5,0.9-1.1,1.6-1.7c0.7-0.6,1.3-1.3,2.2-2
	c0.8-0.7,1.7-1.4,2.7-2.1s2-1.2,3.1-1.8c1.1-0.5,2.2-1.1,3.4-1.3c0.6-0.2,1.2-0.3,1.7-0.5l1.7-0.2c1.2-0.2,2.3-0.1,3.6-0.1
	c1.2,0,2.2,0.3,3.4,0.5c1.1,0.2,2.1,0.7,3.1,1.1c1,0.3,1.8,1,2.7,1.4c0.8,0.5,1.6,0.8,2.2,1.4c0.6,0.5,1.2,1,1.6,1.3
	c0.9,0.7,1.4,1.2,1.4,1.2s-0.5-0.4-1.3-1.2c-0.4-0.4-1-0.9-1.6-1.4c-0.6-0.6-1.3-1-2.2-1.6c-0.8-0.5-1.7-1.2-2.6-1.7
	c-1-0.4-2-1.1-3.1-1.4s-2.2-0.8-3.4-1c-1.2-0.2-2.4-0.5-3.6-0.3h-1.8c-0.6,0-1.2,0.2-1.8,0.2c-1.2,0.1-2.4,0.5-3.6,0.7
	c-1.2,0.3-2.3,0.7-3.4,1.2c-1.1,0.5-2.1,0.9-3,1.4c-1.8,1-3.4,2-4.5,2.8c-0.5,0.4-1,0.7-1.3,1c-0.2,0.2-0.4,0.3-0.4,0.3
	s-2,2.1-0.8,4.7C198.1,210.5,199.8,208.4,199.8,208.4z"/>
<linearGradient id="SVGID_9_" gradientUnits="userSpaceOnUse" x1="157.9548" y1="166.2592" x2="79.3676" y2="85.1459" gradientTransform="matrix(1 0 0 -1 0 430)">
	<stop  offset="0" style="stop-color:#56ABDD;stop-opacity:0"/>
	<stop  offset="1" style="stop-color:#00C7E6"/>
</linearGradient>
<path class="st10" d="M170.4,231.1c0,0-38.1,31.4-59.3,52.4c-6.8,5.3-10.5,10.2-12.6,13.6c-6.7,11.8-8.2,35.1-6.9,35.8
	c1.1,0.6,7.3-5.4,13.6-10.1c4.5-3.3,9.2-5.7,11.5-6c0,0,10.4,7.1,11.4,7c1-0.1,2.8-3.7,8.4-16.1c0,0,18.1-16.6,24.5-20.9"/>
<linearGradient id="SVGID_10_" gradientUnits="userSpaceOnUse" x1="94.0912" y1="95.8673" x2="116.7746" y2="117.939" gradientTransform="matrix(1 0 0 -1 0 430)">
	<stop  offset="0" style="stop-color:#56ABDD;stop-opacity:0"/>
	<stop  offset="1" style="stop-color:#0073B5"/>
</linearGradient>
<path class="st11" d="M91.7,332.8c0,0,15.7-19,21.5-18.2c2.7,0.3,3.8,1.8,3.8,1.8s-3.9,0.8-9.7,4.7
	C101.3,325.3,92.8,333.3,91.7,332.8z"/>
<linearGradient id="SVGID_11_" gradientUnits="userSpaceOnUse" x1="112.35" y1="127.39" x2="88.2685" y2="125.1938" gradientTransform="matrix(1 0 0 -1 0 430)">
	<stop  offset="0" style="stop-color:#56ABDD;stop-opacity:0"/>
	<stop  offset="1" style="stop-color:#FFFFFF"/>
</linearGradient>
<path class="st12" d="M116.7,316.6c-3.2-3.4-6.7-1.2-6.7-1.2s-3.3,1.6-8.5,6.7c-5.2,5.1-9.7,10.3-9.9,10.3c-0.2,0-1-2.5,0.5-13.4
	c1.5-10.9,3.7-21.5,13.1-30.2c0,0,5.2-5,6.3-5.6l9.7-9.2"/>
<g>
	<path class="st13" d="M109.1,316c1-1.1,2.5-1.8,4-1.8c0.7,0,1.5,0.1,2.2,0.4c0.7,0.3,1.3,0.7,1.9,1.2l0,0c1.8,1.2,3.6,2.5,5.4,3.7
		c0.9,0.6,1.8,1.2,2.7,1.8c0.5,0.3,0.9,0.6,1.4,0.9c0.5,0.2,0.9,0.6,1.5,0.7c-0.5-0.2-1-0.4-1.5-0.7c-0.5-0.2-1-0.5-1.5-0.8
		c-0.9-0.6-1.9-1.2-2.8-1.7c-1.8-1.2-3.7-2.4-5.5-3.7l0,0l0,0c-1.1-1-2.4-1.7-3.9-1.7C111.7,314.5,110.2,315,109.1,316z"/>
</g>
<linearGradient id="SVGID_12_" gradientUnits="userSpaceOnUse" x1="152.2767" y1="112.321" x2="176.2336" y2="135.3739" gradientTransform="matrix(1 0 0 -1 0 430)">
	<stop  offset="0" style="stop-color:#56ABDD;stop-opacity:0"/>
	<stop  offset="1" style="stop-color:#0073B5"/>
</linearGradient>
<path class="st14" d="M161.9,281.9c0,0-16.3,13-25,25c-0.5,0.7,20.1-17.9,24-20.1c0.4,1.1,2.6,12.3,4.4,23.3c1.7,10.1,2.5,20,2.5,20
	S165.4,287.6,161.9,281.9z"/>
<linearGradient id="SVGID_13_" gradientUnits="userSpaceOnUse" x1="288.6082" y1="166.5169" x2="368.7643" y2="144.5043" gradientTransform="matrix(1 0 0 -1 0 430)">
	<stop  offset="0" style="stop-color:#56ABDD;stop-opacity:0"/>
	<stop  offset="1" style="stop-color:#00C7E6"/>
</linearGradient>
<path class="st15" d="M282.7,230.7c0,0,58.1,37.9,59.9,41.3c4.5,6.2,6.7,38.3,4.7,38.9c-0.7,0.2-5.7-6.7-11.7-11.6
	c-5.7-4.5-12.6-7-12.6-7s-5.2,8.8-6.6,9c-1.4,0.2-9.2-11.7-9.2-12.1c-2.7-2.7-25.4-12.4-25.4-12.4"/>
<linearGradient id="SVGID_14_" gradientUnits="userSpaceOnUse" x1="298.2791" y1="122.96" x2="287.8485" y2="158.6767" gradientTransform="matrix(1 0 0 -1 0 430)">
	<stop  offset="0" style="stop-color:#56ABDD;stop-opacity:0"/>
	<stop  offset="1" style="stop-color:#0073B5"/>
</linearGradient>
<path class="st16" d="M307.4,288.8c1.5-1.2-23-16.1-29.4-16.9c0,0-0.3,13.1,10.6,51.7c0,0-5.9-40.3-6.7-47.2
	C281.8,276.4,304.6,286.3,307.4,288.8z"/>
<linearGradient id="SVGID_15_" gradientUnits="userSpaceOnUse" x1="183.6404" y1="150.7781" x2="154.2889" y2="148.1015" gradientTransform="matrix(-1 0 0 -1 505.6284 430)">
	<stop  offset="0" style="stop-color:#56ABDD;stop-opacity:0"/>
	<stop  offset="1" style="stop-color:#FFFFFF"/>
</linearGradient>
<path class="st17" d="M323.2,292c0,0,3-2.7,8.1,0.1c8.4,5.5,16,18.4,16.1,18.4c0.2,0,1.8-4.2,0.2-15.1c-1.6-10.9-2.1-18.6-5.1-23.1
	c0,0-13.6-10.6-14.7-11.2l-17.5-11.7"/>
<linearGradient id="SVGID_16_" gradientUnits="userSpaceOnUse" x1="339.0242" y1="129.6022" x2="323.459" y2="128.1827" gradientTransform="matrix(1 0 0 -1 0 430)">
	<stop  offset="0" style="stop-color:#56ABDD;stop-opacity:0"/>
	<stop  offset="1" style="stop-color:#0073B5"/>
</linearGradient>
<path class="st18" d="M347.5,310.5c0,0-15.6-26-24.5-18.8c0,0,8.1,3.7,12.9,7.6c5.7,4.7,11.1,11.4,11.6,11.4
	C347.6,310.7,347.5,310.5,347.5,310.5z"/>
<path class="st13" d="M317.5,299.2c0,0,0.2-0.2,0.6-0.8c0.3-0.5,0.8-1.3,1.4-2.2c0.6-0.9,1.2-2,1.9-3.2c0.4-0.6,0.7-1.2,1.2-1.7
	c0.5-0.5,1.2-0.9,1.9-1.2c1.4-0.5,3-0.2,4.3,0.2c0.7,0.2,1.2,0.5,1.8,0.8c0.6,0.3,1,0.7,1.5,0.9c0.8,0.7,1.6,1.2,2,1.7
	c0.4,0.4,0.7,0.7,0.7,0.7s-0.2-0.2-0.7-0.7s-1.2-0.9-2.1-1.6c-0.5-0.2-0.9-0.6-1.5-0.8c-0.6-0.2-1.2-0.5-1.7-0.7
	c-1.2-0.4-2.7-0.6-4-0.1c-0.7,0.2-1.2,0.6-1.7,1c-0.4,0.5-0.7,1.2-1.2,1.7c-0.7,1.2-1.4,2.2-2.1,3.1c-0.6,0.9-1.2,1.6-1.6,2.1
	C317.8,299,317.5,299.2,317.5,299.2z"/>
<linearGradient id="SVGID_17_" gradientUnits="userSpaceOnUse" x1="224.7175" y1="138.2897" x2="224.7175" y2="7.602" gradientTransform="matrix(1 0 0 -1 0 430)">
	<stop  offset="0" style="stop-color:#FFFFFF;stop-opacity:0"/>
	<stop  offset="1" style="stop-color:#FFFFFF"/>
</linearGradient>
<path class="st19" d="M277.1,271.7c-1.1,7.2,8.5,52,8.5,52c-1.5,3.8-27,28.5-56.7,29.5c-29.8,1.1-59.7-24.9-59.7-24.9
	s-2.1-37.4-5.2-46.5"/>
<linearGradient id="SVGID_18_" gradientUnits="userSpaceOnUse" x1="194.5357" y1="13.9182" x2="220.4629" y2="107.1325" gradientTransform="matrix(1 0 0 -1 0 430)">
	<stop  offset="0" style="stop-color:#56ABDD;stop-opacity:0"/>
	<stop  offset="1" style="stop-color:#0073B5"/>
</linearGradient>
<path class="st20" d="M205.8,349.6l-15.3,44.4c0,0,0.8,20-6.7,21.6c0,0,21.2-0.5,18.5-18.2l9.3-20.7l11.1-23.3
	C222.8,353.5,215.4,353.3,205.8,349.6z"/>
<linearGradient id="SVGID_19_" gradientUnits="userSpaceOnUse" x1="275.4836" y1="22.659" x2="237.4313" y2="86.7652" gradientTransform="matrix(1 0 0 -1 0 430)">
	<stop  offset="0" style="stop-color:#56ABDD;stop-opacity:0"/>
	<stop  offset="1" style="stop-color:#0073B5"/>
</linearGradient>
<path class="st21" d="M235.3,352.9c0,0,8.1-1.2,14.9-4l15.7,29.3l9,25.3c0,0,5.3,10.6,11.7,11.9c0,0-13.7-1.2-18.1-4.7
	c-4.4-3.5-12.5-28-12.5-28L235.3,352.9z"/>
<g>
	<path class="st22" d="M197.1,345.8c0,0,0.9,0.4,2.5,1c1.6,0.7,3.9,1.5,6.7,2.4c1.4,0.5,2.9,0.9,4.5,1.4c0.8,0.2,1.7,0.4,2.5,0.7
		c0.8,0.2,1.7,0.4,2.6,0.7c0.9,0.2,1.7,0.3,2.7,0.6c0.9,0.2,1.8,0.2,2.7,0.4c0.9,0.2,1.9,0.2,2.8,0.3c0.9,0.1,1.9,0.1,2.8,0.1
		c0.9,0,1.9-0.1,2.8-0.1c1-0.1,1.9-0.2,2.9-0.3c1.8-0.2,3.7-0.6,5.5-1c1.7-0.4,3.5-0.8,5.1-1.2c0.8-0.2,1.6-0.4,2.3-0.7
		c0.7-0.2,1.5-0.4,2.2-0.7c2.7-0.9,5.1-1.7,6.6-2.4c1.6-0.7,2.5-1.1,2.5-1.1s-0.8,0.5-2.3,1.3c-1.5,0.8-3.7,1.9-6.4,3.1
		c-1.3,0.6-2.8,1.2-4.4,1.7c-1.6,0.6-3.3,1.1-5.1,1.5c-1.8,0.4-3.7,0.8-5.6,1.2c-1,0.2-1.9,0.2-2.9,0.3s-2,0.1-3,0.2
		c-1-0.1-2-0.1-3-0.2s-2-0.2-2.9-0.3c-1-0.2-1.9-0.3-2.8-0.5c-0.9-0.2-1.8-0.4-2.7-0.7c-0.9-0.2-1.7-0.5-2.6-0.7
		c-0.8-0.2-1.7-0.5-2.5-0.8c-0.8-0.2-1.6-0.6-2.3-0.8c-0.7-0.3-1.4-0.6-2.2-0.8c-1.3-0.6-2.6-1.1-3.7-1.7c-1.1-0.5-2-1-2.7-1.3
		c-0.7-0.4-1.3-0.7-1.7-0.9C197.3,346,197.1,345.8,197.1,345.8z"/>
</g>
<linearGradient id="SVGID_20_" gradientUnits="userSpaceOnUse" x1="109.6709" y1="264.5797" x2="120.1104" y2="264.5797" gradientTransform="matrix(1 0 0 -1 0 430)">
	<stop  offset="0" style="stop-color:#56ABDD;stop-opacity:0"/>
	<stop  offset="1" style="stop-color:#0073B5"/>
</linearGradient>
<polyline class="st23" points="119.6,175.4 120.1,169.6 109.7,155.4 "/>
<linearGradient id="SVGID_21_" gradientUnits="userSpaceOnUse" x1="161.6693" y1="204.9573" x2="96.4682" y2="254.0276" gradientTransform="matrix(1 0 0 -1 0 430)">
	<stop  offset="0" style="stop-color:#56ABDD;stop-opacity:0"/>
	<stop  offset="1" style="stop-color:#0073B5"/>
</linearGradient>
<path class="st24" d="M101.3,175.7l29.3,24.6l40,29.1l-42.7-25.9C127.9,203.6,104.3,181.4,101.3,175.7z"/>
<linearGradient id="SVGID_22_" gradientUnits="userSpaceOnUse" x1="284.8136" y1="202.9157" x2="348.9302" y2="258.0858" gradientTransform="matrix(1 0 0 -1 0 430)">
	<stop  offset="0" style="stop-color:#56ABDD;stop-opacity:0"/>
	<stop  offset="1" style="stop-color:#0073B5"/>
</linearGradient>
<path class="st25" d="M337,176.5c0,0,0.5,7.2-10.8,20.1c0,0-14.6,15.5-43.7,32.5c0,0,36.4-30.9,41.7-37.3"/>
<linearGradient id="SVGID_23_" gradientUnits="userSpaceOnUse" x1="132.342" y1="349.1096" x2="114.7338" y2="393.7842" gradientTransform="matrix(1 0 0 -1 0 430)">
	<stop  offset="0" style="stop-color:#56ABDD;stop-opacity:0"/>
	<stop  offset="1" style="stop-color:#0073B5"/>
</linearGradient>
<path class="st26" d="M118.9,37.8c0,0-0.9,11.5,4.3,31.1c0,0,5.2,12.6,5.6,13.4l2.9-13.9l-4.2-4.5C127.5,63.9,122,50.7,118.9,37.8z"
	/>
<linearGradient id="SVGID_24_" gradientUnits="userSpaceOnUse" x1="304.8909" y1="382.7675" x2="303.6792" y2="421.2373" gradientTransform="matrix(1 0 0 -1 0 430)">
	<stop  offset="0" style="stop-color:#56ABDD;stop-opacity:0"/>
	<stop  offset="1" style="stop-color:#0073B5"/>
</linearGradient>
<path class="st27" d="M306,14.6l-4.3,21l5.8,7.5C307.5,43,307,16.5,306,14.6z"/>
<linearGradient id="SVGID_25_" gradientUnits="userSpaceOnUse" x1="314.2049" y1="341.7519" x2="330.3667" y2="407.9757" gradientTransform="matrix(1 0 0 -1 0 430)">
	<stop  offset="0" style="stop-color:#56ABDD;stop-opacity:0"/>
	<stop  offset="1" style="stop-color:#0073B5"/>
</linearGradient>
<path class="st28" d="M328,36.3l-4.2,14.8l-10.1,18.1l3.7,24.5l10.1-39.4C327.6,54.2,328.4,38.8,328,36.3z"/>
<linearGradient id="SVGID_26_" gradientUnits="userSpaceOnUse" x1="224.6759" y1="156.007" x2="224.6759" y2="216.7889" gradientTransform="matrix(1 0 0 -1 0 430)">
	<stop  offset="0" style="stop-color:#56ABDD;stop-opacity:0"/>
	<stop  offset="1" style="stop-color:#0073B5"/>
</linearGradient>
<path class="st29" d="M337.6,268.9l-56.2-37.7c0,0-25.3,11.6-57.1,11.6s-51.5-11.6-51.5-11.6l-61.1,52"/>
<path class="st13" d="M101.7,175.3c0,0,6.7-0.9,17.6,0.6l-3.2,4.6C116.1,180.5,109.3,175.4,101.7,175.3z"/>
<path class="st13" d="M109.4,155l15.3,3.7c0,0-3.8,2.6-4.4,2.5C119.7,161.1,109.4,155,109.4,155z"/>
<g>
	<path class="st13" d="M112.1,283.3c0,0,0.9-0.8,2.5-2.3c1.6-1.5,3.8-3.6,6.6-6.1c2.7-2.5,5.9-5.3,9.4-8.4c1.7-1.5,3.5-3.1,5.3-4.7
		c1.8-1.6,3.7-3.2,5.6-4.8c1.9-1.6,3.7-3.2,5.6-4.7c1.8-1.6,3.7-3.1,5.4-4.6c3.6-3,6.9-5.7,9.7-8c2.8-2.3,5.3-4.2,7-5.6
		c1.7-1.3,2.7-2.1,2.7-2.1s-0.9,0.8-2.5,2.3c-1.6,1.5-3.8,3.6-6.6,6.1c-2.7,2.5-5.9,5.3-9.4,8.4c-1.7,1.5-3.5,3.1-5.3,4.7
		c-1.8,1.6-3.7,3.2-5.6,4.8c-1.9,1.6-3.7,3.2-5.6,4.7c-1.8,1.6-3.7,3.1-5.4,4.6c-3.6,3-6.9,5.7-9.7,8c-2.8,2.3-5.3,4.2-7,5.6
		C113.1,282.5,112.1,283.3,112.1,283.3z"/>
</g>
<path class="st22" d="M303.2,373.7c0,0-2.9,6.2-13.1,10.3c0,0,9.7-1.9,14.1-7.9L303.2,373.7z"/>
<linearGradient id="SVGID_27_" gradientUnits="userSpaceOnUse" x1="227.8371" y1="91.2094" x2="227.8371" y2="70.6514" gradientTransform="matrix(1 0 0 -1 0 430)">
	<stop  offset="0" style="stop-color:#FFFFFF;stop-opacity:0"/>
	<stop  offset="1" style="stop-color:#FFFFFF"/>
</linearGradient>
<ellipse class="st30" cx="227.8" cy="344.7" rx="17.6" ry="8.1"/>
<g>
	<path class="st13" d="M289.2,330.8c0.9,1.7,1.7,3.5,2.5,5.2c0.8,1.7,1.6,3.5,2.4,5.2c0.7,1.7,1.6,3.5,2.3,5.2s1.5,3.5,2.2,5.3
		c0.7,1.7,1.5,3.6,2.2,5.3l0.5,1.3l0.2,0.7l0.2,0.4l0.1,0.4c0.2,1,0.4,1.9,0.6,2.9c0.1,1,0.2,2,0.2,2.9c0,1,0,2-0.1,2.9
		c-0.1,1-0.2,1.9-0.3,2.9c-0.2,1-0.3,1.9-0.6,2.8v0.2l-0.1,0.1c-1.1,1.1-2.2,2.1-3.3,3.1c-1.2,1-2.3,1.9-3.7,2.6
		c0.6-0.4,1.2-0.9,1.7-1.4c0.6-0.5,1.1-1,1.6-1.6c1-1.1,2-2.2,3-3.3l-0.1,0.2c0.2-0.9,0.2-1.9,0.4-2.8c0.1-0.9,0.2-1.9,0.2-2.8
		s0-1.9-0.1-2.8c-0.1-0.9-0.2-1.8-0.3-2.8c-0.2-0.9-0.3-1.8-0.6-2.7l-0.1-0.3l-0.1-0.2l-0.2-0.7l-0.6-1.3c-0.7-1.7-1.4-3.6-2.2-5.3
		c-0.7-1.7-1.4-3.6-2.1-5.3c-0.7-1.7-1.3-3.6-2.1-5.4c-0.7-1.8-1.3-3.6-2-5.4C290.5,334.5,289.8,332.8,289.2,330.8z"/>
</g>
<path class="st13" d="M302.7,378.3l4.8,23.9l-0.2-0.3c1.2,0.9,2.2,1.8,3.4,2.7c0.6,0.5,1.2,0.7,1.7,1.7c0.1,0.2,0.1,0.2,0.1,0.5
	c0,0,0,0.1-0.1,0.2c0,0.1-0.1,0.2-0.1,0.2c-0.1,0.2-0.2,0.3-0.4,0.5c-0.2,0.3-0.6,0.6-0.8,0.8c-2.4,1.9-5.1,3.2-7.8,4.3
	c-5.5,2.2-11.6,3-17.4,1.7c5.8,1.2,11.8,0.1,17.2-2.2c2.7-1.2,5.3-2.6,7.5-4.4c0.2-0.2,0.5-0.5,0.7-0.7c0.1-0.1,0.2-0.2,0.2-0.3
	v-0.1c0,0,0,0,0-0.1c0,0.1,0,0,0-0.1c-0.2-0.4-0.9-0.8-1.5-1.2c-1.2-0.8-2.4-1.7-3.6-2.7l-0.2-0.1l-0.1-0.2l-5.2-22.9L302.7,378.3z"
	/>
<g>
	<path class="st13" d="M169.2,330.8c-0.5,2.9-1.1,5.7-1.7,8.7c-0.6,2.9-1.2,5.7-1.7,8.7c-1.2,5.7-2.4,11.5-3.7,17.2l-0.9,4.3
		l-0.1,0.5c0,0.2,0,0.3-0.1,0.5l-0.1,1.1l-0.1,2.2c-0.2,2.9-0.2,5.9-0.5,8.8c-0.2,2.9-0.4,5.9-0.7,8.8c-0.2,1.5-0.3,2.9-0.6,4.4
		c-0.2,0.7-0.2,1.5-0.4,2.2s-0.3,1.5-0.7,2.2l0.1-0.3c0,0.3-0.1,0.5-0.2,0.7s-0.2,0.4-0.2,0.6c-0.2,0.4-0.4,0.7-0.7,1.1
		c-0.5,0.7-1.2,1.2-1.7,1.7c-0.6,0.5-1.1,1-1.6,1.5c-0.1,0.1-0.2,0.2-0.3,0.3l0,0c0,0,0,0,0-0.1s0-0.1,0-0.2l0,0v0.1c0,0,0,0,0,0.1
		c0.1,0.2,0.3,0.5,0.5,0.7c0.9,1.1,2.1,1.9,3.3,2.7c1.2,0.8,2.5,1.5,3.8,2.2c2.7,1.2,5.5,2.3,8.4,3.1c2.9,0.7,5.8,1.2,8.8,1.4
		c-3,0-6-0.3-9-0.9c-3-0.6-5.9-1.5-8.7-2.7c-1.4-0.6-2.7-1.3-4.1-2.1c-1.3-0.8-2.6-1.7-3.7-2.9c-0.2-0.3-0.5-0.6-0.7-1.1
		c-0.1-0.1-0.1-0.2-0.2-0.4V406l0,0c0-0.1,0-0.2,0-0.2c0.1-0.2,0.1-0.2,0.1-0.2s0.1-0.1,0.1-0.1c0.2-0.2,0.2-0.3,0.4-0.5
		c0.5-0.6,1.1-1.2,1.7-1.7c0.6-0.6,1.1-1,1.5-1.5c0.2-0.2,0.4-0.5,0.5-0.8c0.1-0.2,0.2-0.2,0.2-0.4c0.1-0.1,0.1-0.3,0.1-0.3v-0.1
		l0.1-0.2c0.2-0.5,0.4-1.2,0.6-1.9c0.2-0.7,0.2-1.4,0.4-2.1c0.2-1.4,0.4-2.9,0.6-4.3c0.3-2.9,0.5-5.8,0.7-8.7s0.3-5.8,0.5-8.8
		l0.2-2.2l0.1-1.1c0-0.2,0.1-0.4,0.1-0.6c0.1-0.2,0.1-0.4,0.2-0.6l1-4.3c1.3-5.7,2.7-11.4,4.2-17.1c0.7-2.8,1.4-5.7,2.2-8.6
		C167.7,336.5,168.4,333.7,169.2,330.8z"/>
</g>
<g>
	<path class="st13" d="M281.9,231.6c0,0,0.9,0.5,2.6,1.5c1.6,1,4,2.3,6.7,4.1c2.7,1.7,6,3.7,9.4,5.9c1.7,1.1,3.5,2.2,5.2,3.4
		s3.6,2.4,5.4,3.6c1.8,1.2,3.6,2.4,5.3,3.7c1.7,1.2,3.5,2.4,5.2,3.6c3.3,2.3,6.4,4.6,9,6.5c1.3,0.9,2.5,1.8,3.6,2.7
		c1.1,0.8,2,1.5,2.7,2.1c1.5,1.2,2.3,1.8,2.3,1.8s-0.9-0.6-2.5-1.6c-1.6-1-3.9-2.5-6.7-4.2s-5.9-3.8-9.3-6.1
		c-1.7-1.1-3.4-2.2-5.2-3.4c-1.7-1.2-3.6-2.4-5.4-3.6c-1.8-1.2-3.6-2.4-5.3-3.7c-1.7-1.2-3.5-2.4-5.2-3.5c-3.3-2.3-6.5-4.5-9.1-6.3
		c-2.7-1.9-4.8-3.5-6.4-4.6C282.7,232.3,281.9,231.6,281.9,231.6z"/>
</g>
<path class="st31" d="M312.4,72.3l4.7,22.9l7.2,77.3l-2.8,4.6l-6.3,0.7l1-3.3c0,0-1-74.2-1.3-75.5C314.4,97.5,312.4,72.3,312.4,72.3
	z"/>
<polygon class="st31" points="132,71 123.1,145.2 126.1,159.5 128.4,146.5 "/>
<path class="st13" d="M135,38.8c0,0,80.2-16.2,85.2-16.2s60.6,4,69.3,5.3c0,0-13.2,1-19.2,2c0,0,34.4,5.7,23.2,39.4
	c0,0-0.7-41.8-64.3-23.2s-87.8-1.3-87.8-1.3L135,38.8z"/>
<path class="st13" d="M305.3,14.8l-15.5,11.5c0,0,6.5,2.5,7.1,4.3L305.3,14.8z"/>
<path class="st13" d="M308.4,42.9c0,0,6.9,1.3,19.1-6.5c0,0-6.5,11.3-17.1,12.1L308.4,42.9z"/>
<path class="st13" d="M119.4,37.8c0,0,1.8-0.2,11.4,1.2l-2.2,4.9C128.7,43.8,122.3,39,119.4,37.8z"/>
<linearGradient id="SVGID_28_" gradientUnits="userSpaceOnUse" x1="228.7523" y1="148.1385" x2="228.7523" y2="171.7497" gradientTransform="matrix(1 0 0 -1 0 430)">
	<stop  offset="0" style="stop-color:#56ABDD;stop-opacity:0"/>
	<stop  offset="1" style="stop-color:#0073B5"/>
</linearGradient>
<path class="st32" d="M228.7,258.6c11.6,0,21,9.1,21.6,20.5c0-0.4,0.1-0.7,0.1-1.2c0-12-9.7-21.6-21.6-21.6s-21.6,9.7-21.6,21.6
	c0,0.4,0,0.7,0.1,1.2C207.7,267.7,217.1,258.6,228.7,258.6z"/>
<g class="st33">
	
		<linearGradient id="SVGID_29_" gradientUnits="userSpaceOnUse" x1="228.6691" y1="162.3864" x2="228.6691" y2="106.8324" gradientTransform="matrix(1 0 0 -1 0 430)">
		<stop  offset="0" style="stop-color:#FFFFFF;stop-opacity:0"/>
		<stop  offset="1" style="stop-color:#FFFFFF"/>
	</linearGradient>
	<path class="st34" d="M228.7,258.6c-11.5,0-20.8,8.9-21.5,20.2c0.7,11.2,10.1,20.2,21.5,20.2c11.5,0,20.8-8.9,21.5-20.2
		C249.5,267.6,240.1,258.6,228.7,258.6z"/>
	<path class="st13" d="M228.7,299.1c-11.5,0-20.8-8.9-21.5-20.2c0,0.1,0,0.2,0,0.3c0.6,11.4,10.1,20.5,21.6,20.5
		c11.6,0,21-9.1,21.6-20.5c0-0.1,0-0.2,0-0.3C249.5,290.2,240.1,299.1,228.7,299.1z"/>
</g>
<g>
	<path class="st35" d="M242.1,265.8c-0.1-0.3-0.3-0.5-0.6-0.4l-6,1.7c-0.1,0-0.2,0.1-0.2,0.2l-1.8,3.4l-0.3,0.7h-11
		c-0.2,0-0.5,0.2-0.5,0.5l0,0c0,0,0,0,0,0.1l2.2,18.2c0.1,0.9,2.2,1.3,6.3,1.3s6.2-0.5,6.3-1.3l2.2-18.3l0,0l0,0
		c0-0.3-0.2-0.5-0.5-0.5h-3.9l0.3-0.7l1.4-2.6l5.8-1.7C242,266.5,242.1,266.1,242.1,265.8z M232.5,272.4l-1.7,3.2h-7.7l-0.4-3.2
		H232.5z M226.8,286.8c0,0.2-0.2,0.4-0.3,0.4l0,0c-0.2,0-0.4-0.2-0.4-0.3l-0.8-9.2c0-0.2,0.2-0.4,0.3-0.4c0.2,0,0.4,0.2,0.4,0.3
		L226.8,286.8z M230.1,290.5c-3,0-4.8-0.3-5.2-0.5l-0.2-1.7c0.7,0.2,2.7,0.5,5.1,0.5c2.6,0,4.9-0.2,5.7-0.6l-0.2,1.8
		C234.9,290.2,233.1,290.5,230.1,290.5z M237.4,272.4l-0.4,3.2h-5.1l1.7-3.2H237.4z"/>
	<path class="st35" d="M220.8,274.7c-2.1-0.1-3.7-1.9-3.7-4c0-2.2,1.8-4,4-4c2,0,3.7,1.5,4,3.5c0,0.2,0.2,0.4,0.5,0.4
		c0.2,0,0.4-0.2,0.4-0.5c-0.3-2.5-2.4-4.3-4.9-4.3c-2.7,0-4.9,2.2-4.9,4.9c0,2.6,2.1,4.7,4.7,4.9l0,0c0.2,0,0.5-0.2,0.5-0.4
		C221.2,274.9,221,274.7,220.8,274.7z"/>
	<path class="st35" d="M217.6,270.4h2.8l-2-2C217.9,269,217.7,269.7,217.6,270.4z"/>
	<path class="st35" d="M220.8,267.3c-0.7,0.1-1.4,0.3-2,0.8l2,2V267.3z"/>
	<path class="st35" d="M218.4,272.9L218.4,272.9l2-2h-2.8C217.7,271.7,217.9,272.4,218.4,272.9z"/>
	<path class="st35" d="M220.8,271.1l-2.1,2.1l0,0c0.6,0.5,1.2,0.8,2.1,0.8V271.1z"/>
	<path class="st35" d="M221.2,267.3v2.8l2-2C222.7,267.6,222,267.4,221.2,267.3z"/>
	<path class="st35" d="M223.6,268.5l-2.2,2h2.9C224.3,269.7,224.1,269,223.6,268.5z"/>
</g>
<path class="st36" d="M219.3,205.3c0,0,8.7,18.8-4.8,32.1h-74.5c0,0-38.4,1-31.5,37.5c6.9,36.5,19.5,67.6,76,65.3
	s119.7-1.9,122.9-48c3.9-56.5-53.8-54.1-53.8-54.1S256.4,215.8,219.3,205.3z"/>
<linearGradient id="SVGID_30_" gradientUnits="userSpaceOnUse" x1="150.8007" y1="212.3607" x2="276.4518" y2="86.7095" gradientTransform="matrix(1 0 0 -1 0 430)">
	<stop  offset="0" style="stop-color:#FFFFFF"/>
	<stop  offset="0.5569" style="stop-color:#FBFBFB"/>
	<stop  offset="1" style="stop-color:#F2F2F2"/>
</linearGradient>
<path class="st37" d="M227,203.6c0,0,8.7,19.6-4.8,32.1h-74.5c0,0-38.4,1-31.5,37.5c6.9,36.5,19.5,67.6,76,65.3s119.7-1.9,122.9-48
	c3.9-56.5-53.8-54.1-53.8-54.1S264.1,214.2,227,203.6z"/>
<text transform="matrix(1 0 0 1 132.583 294.58)" class="st38 st39 st40">¿NO LLEVAS NADA?</text>
</svg>
