<?xml version="1.0" encoding="utf-8"?>
<!-- Generator: Adobe Illustrator 19.1.0, SVG Export Plug-In . SVG Version: 6.00 Build 0)  -->
<svg version="1.1" id="Capa_1" xmlns="http://www.w3.org/2000/svg" xmlns:xlink="http://www.w3.org/1999/xlink" x="0px" y="0px"
	 viewBox="0 0 133 43" style="enable-background:new 0 0 133 43;" xml:space="preserve">
<style type="text/css">
	.st0{fill:#FFFFFF;}
	.st1{fill:#FFC609;}
	.st2{fill:#FFFFFF;stroke:#FF0000;stroke-width:5;stroke-miterlimit:10;}
	.st3{fill:url(#SVGID_1_);}
	.st4{fill:#FF0000;}
</style>
<path class="st0" d="M47.7,16.5c0-0.8,0.6-1.4,1.4-1.4H52c4,0,6.2,2.5,6.2,6.5c0,3.7-2.4,6.1-6.1,6.1h-3.1c-0.6,0-1.4-0.3-1.4-1.3
	V16.5z M50.3,25.2h1.8c2.3,0,3.3-1.7,3.3-3.8c0-2.3-1.1-3.9-3.5-3.9h-1.6V25.2z"/>
<path class="st0" d="M59.9,16.4c0-0.8,0.5-1.4,1.4-1.4h3.1c2.7,0,4.4,1.2,4.4,4c0,1.9-1.5,3.1-3.3,3.3l3,3.2
	c0.2,0.3,0.4,0.5,0.4,0.8c0,0.7-0.5,1.4-1.3,1.4c-0.3,0-0.7-0.1-1-0.5l-3.9-4.8h0v3.8c0,0.9-0.6,1.4-1.3,1.4c-0.8,0-1.3-0.5-1.3-1.4
	V16.4z M62.6,20.6h1.8c1,0,1.6-0.6,1.6-1.6c0-1-0.7-1.6-1.6-1.6h-1.8V20.6z"/>
<path class="st0" d="M70.2,16.4c0-0.9,0.6-1.4,1.3-1.4c0.8,0,1.3,0.5,1.3,1.4v10.1c0,0.9-0.6,1.4-1.3,1.4c-0.8,0-1.3-0.5-1.3-1.4
	V16.4z"/>
<path class="st0" d="M74.8,16.4c0-0.9,0.6-1.4,1.3-1.4c0.3,0,0.9,0.3,1.1,0.6l5.6,7.5h0v-6.7c0-0.9,0.6-1.4,1.3-1.4
	c0.8,0,1.3,0.5,1.3,1.4v10.1c0,0.9-0.6,1.4-1.3,1.4c-0.3,0-0.9-0.3-1.1-0.6l-5.6-7.4h0v6.6c0,0.9-0.6,1.4-1.3,1.4
	c-0.8,0-1.3-0.5-1.3-1.4V16.4z"/>
<path class="st0" d="M87.5,16.3c0-0.7,0.5-1.3,1.3-1.3c0.8,0,1.3,0.5,1.3,1.3v3.8l4.4-4.6c0.2-0.2,0.5-0.5,1-0.5
	c0.7,0,1.3,0.5,1.3,1.3c0,0.5-0.3,0.8-0.9,1.4L92.6,21l4.1,4.3c0.4,0.4,0.7,0.8,0.7,1.3c0,0.8-0.7,1.2-1.4,1.2
	c-0.5,0-0.9-0.3-1.3-0.8l-4.6-5v4.5c0,0.7-0.5,1.3-1.3,1.3c-0.8,0-1.3-0.5-1.3-1.3V16.3z"/>
<path class="st0" d="M104.8,27.2c-0.1,0.3-0.3,0.6-0.8,0.6c-0.4,0-0.7-0.2-0.7-0.7c0-0.2,0.2-0.6,0.2-0.8l3.9-10.4
	c0.2-0.5,0.5-1,1.1-1c0.6,0,0.9,0.4,1.1,1l3.9,10.4c0.1,0.2,0.2,0.6,0.2,0.8c0,0.4-0.3,0.7-0.7,0.7c-0.4,0-0.6-0.2-0.8-0.6l-0.8-2.3
	h-5.8L104.8,27.2z M108.5,16.8L108.5,16.8l-2.5,6.8h4.9L108.5,16.8z"/>
<path class="st0" d="M116.9,26.9c0,0.5-0.3,0.8-0.8,0.8c-0.5,0-0.8-0.3-0.8-0.8v-11c0-0.5,0.2-0.8,0.8-0.8h3.1c2.5,0,4.1,1.8,4.1,4
	c0,2.2-1.7,3.9-4,3.9h-2.4V26.9z M116.9,21.6h2.3c1.5,0,2.6-1.2,2.6-2.6c0-1.2-0.7-2.6-2.7-2.6h-2.2V21.6z"/>
<path class="st0" d="M126.6,26.9c0,0.5-0.3,0.8-0.8,0.8c-0.5,0-0.8-0.3-0.8-0.8v-11c0-0.5,0.2-0.8,0.8-0.8h3.1c2.5,0,4.1,1.8,4.1,4
	c0,2.2-1.7,3.9-4,3.9h-2.4V26.9z M126.6,21.6h2.3c1.5,0,2.6-1.2,2.6-2.6c0-1.2-0.7-2.6-2.7-2.6h-2.2V21.6z"/>
<g>
	<path class="st1" d="M35.3,16.7H10.7L13.4,37c0.4,0.5,3.9,1.2,9,1.2c5.1,0,9.6-0.7,10-1.2L35.3,16.7z"/>
	<path class="st0" d="M30.2,8.7l2.3-4.3L42,1.8c0.4-0.1,0.7-0.6,0.6-1.1c-0.1-0.5-0.5-0.8-0.9-0.7l-9.8,2.8
		c-0.2,0.1-0.4,0.2-0.5,0.4l-3,5.6l-4.2,8H26L30.2,8.7z"/>
	<path class="st0" d="M23,42.9c-6.7,0-10.2-0.7-10.3-2.2L9.1,10.8c0,0,0-0.1,0-0.1c0,0,0,0,0,0c0-0.5,0.4-0.9,0.8-0.9h26.2
		c0.4,0,0.8,0.4,0.8,0.9c0,0,0,0,0,0c0,0,0,0,0,0.1l-3.6,29.9C33.2,42.1,29.7,42.9,23,42.9 M14.4,40.2c0.7,0.3,3.6,0.9,8.6,0.9
		c4.9,0,7.9-0.6,8.6-0.9L35,11.5H11L14.4,40.2z"/>
	<path class="st0" d="M7.7,15.1c-3.4-0.2-6.2-3.1-6.2-6.5c0-3.6,2.9-6.5,6.5-6.5c3.3,0,6.1,2.5,6.5,5.7c0.1,0.4,0.4,0.7,0.8,0.7
		c0.4-0.1,0.7-0.4,0.7-0.9c-0.5-4-3.9-7.1-8-7.1C3.6,0.5,0,4.1,0,8.6c0,4.3,3.3,7.8,7.6,8.1h0c0.4,0,0.8-0.3,0.8-0.7
		C8.4,15.5,8.1,15.2,7.7,15.1"/>
	<path class="st0" d="M2.5,8.2h4.6L3.9,4.9C3.1,5.8,2.6,7,2.5,8.2"/>
	<path class="st0" d="M7.7,3.1C6.5,3.2,5.3,3.6,4.4,4.4l3.3,3.3V3.1z"/>
	<path class="st0" d="M3.9,12.2C3.9,12.2,3.9,12.2,3.9,12.2L7.2,9H2.5C2.6,10.2,3.1,11.4,3.9,12.2"/>
	<path class="st0" d="M7.8,9.4l-3.4,3.4c0,0,0,0,0,0c0.9,0.8,2.1,1.3,3.4,1.3V9.4z"/>
	<path class="st0" d="M8.5,3.1v4.6l3.3-3.3C10.8,3.6,9.7,3.2,8.5,3.1"/>
	<path class="st0" d="M12.3,5L8.8,8.3h4.8C13.6,7.1,13.1,5.9,12.3,5"/>
	<path class="st0" d="M17.5,34.9c0,0.4-0.2,0.7-0.6,0.7h0c-0.3,0-0.7-0.2-0.7-0.6L14.7,20c0-0.4,0.2-0.7,0.6-0.7
		c0.3,0,0.7,0.2,0.7,0.6L17.5,34.9z"/>
</g>
</svg>
