<?xml version="1.0" encoding="utf-8"?>
<!-- Generator: Adobe Illustrator 19.1.0, SVG Export Plug-In . SVG Version: 6.00 Build 0)  -->
<svg version="1.1" id="Capa_1" xmlns="http://www.w3.org/2000/svg" xmlns:xlink="http://www.w3.org/1999/xlink" x="0px" y="0px"
	 viewBox="-414 282.3 32 32" style="enable-background:new -414 282.3 32 32;" xml:space="preserve">
<style type="text/css">
	.st0{fill:#FFFFFF;}
</style>
<g>
	<path class="st0" d="M-387.7,303.1h-22.1v9.5h12.4l-1.6-1.4l1.4-1.6l1.6,1.4l-1.4,1.6h9.7L-387.7,303.1L-387.7,303.1z
		 M-408.1,311.9l-1.6-1.4l1.4-1.6l1.6,1.4L-408.1,311.9z M-406.6,307.8l-1.6-1.4l1.4-1.6l1.6,1.4L-406.6,307.8z M-389.7,307.8
		l-1.6-1.4l1.4-1.6l1.6,1.4L-389.7,307.8z M-410.7,286.4l-1-3l3.5-1.1l1,3L-410.7,286.4z M-388.4,288l-1.4,2.6
		c-1.7-0.1-3.4,0.8-4.2,2.4l-1.3,2.6l-3.7,7.1l-2.4-7.7l-0.9-2.8c-0.5-1.7-2-2.9-3.7-3.1l-0.9-2.8l-3.5,1.1l0.9,2.8
		c-1.3,1.1-1.8,2.9-1.3,4.6l0.9,2.8l1.6,5.1h9.3h0h10l1.6-3l0.5-0.9v14.3h-23.5v-14.7h-1.2v15.9h25.8v-15.9h-1l0.7-1.3
		c0.8-1.6,0.6-3.5-0.5-4.8l1.4-2.6L-388.4,288z M-406.8,301.7l-1.7-4.2l5.6-2.2l2.4,6.5C-400.5,301.7-406.8,301.7-406.8,301.7z
		 M-390,301.6h-6.8l3.5-6.4l5.3,2.5L-390,301.6z M-383.3,286l-1.5,2.8l-3.2-1.7l1.5-2.8L-383.3,286z"/>
</g>
</svg>
